<svg width="60" height="60" viewBox="0 0 60 60" fill="none" xmlns="http://www.w3.org/2000/svg">
<rect width="60" height="60" rx="3" fill="#027A4C"/>
<mask id="mask0_203_6403" style="mask-type:luminance" maskUnits="userSpaceOnUse" x="0" y="0" width="60" height="60">
<rect width="60" height="60" rx="3" fill="white"/>
</mask>
<g mask="url(#mask0_203_6403)">
<path fill-rule="evenodd" clip-rule="evenodd" d="M51.0274 2L110.055 64H-8L51.0274 2Z" fill="#04BA74"/>
<path fill-rule="evenodd" clip-rule="evenodd" d="M7.0274 38L66.0548 100H-52L7.0274 38Z" fill="#12AE72"/>
<path fill-rule="evenodd" clip-rule="evenodd" d="M39 28L81 73H-3L39 28Z" fill="#07E08D"/>
</g>
<circle cx="30" cy="30" r="17" fill="white"/>
<mask id="mask1_203_6403" style="mask-type:luminance" maskUnits="userSpaceOnUse" x="20" y="20" width="20" height="20">
<path fill-rule="evenodd" clip-rule="evenodd" d="M26.9355 30.4589H29.2884C28.5967 32.2949 27.8817 34.0781 26.9316 35.5196L26.9355 30.4589ZM23.3818 30.4589H26.0203V36.7091C25.4332 37.3731 24.7257 37.9186 23.9355 38.3165C23.7568 38.4044 23.5722 38.4845 23.3798 38.5587V30.4589H23.3818ZM30.6096 29.5448C31.3421 27.6034 32.0979 25.7244 33.1355 24.2361V29.5468H30.6096V29.5448ZM36.6814 29.5448H34.0429V23.0993C34.6015 22.5113 35.2593 22.0272 35.9858 21.6696C36.2162 21.5561 36.453 21.4563 36.695 21.3708V29.5526L36.6814 29.5448ZM35.5797 20.8454C34.532 21.3729 33.6116 22.1242 32.8829 23.0466C31.4179 24.8552 30.5183 27.2108 29.6343 29.5468H20.4906C20.3272 29.536 20.1704 29.6136 20.0793 29.7505C19.9883 29.8874 19.9768 30.0628 20.0492 30.2105C20.1216 30.3582 20.2669 30.4559 20.4304 30.4667H22.4666V38.8654C21.8176 39.0121 21.1539 39.0836 20.4887 39.0783C20.236 39.0615 20.0176 39.2539 20.001 39.508C19.9844 39.762 20.1758 39.9815 20.4285 39.9982H20.4887C21.8196 40.0254 23.1387 39.7413 24.3416 39.1681C25.3845 38.6364 26.299 37.8818 27.021 36.9571C28.486 35.1465 29.3875 32.8027 30.2638 30.4589H39.5434C39.7956 30.4589 40 30.2534 40 29.9999C40 29.7464 39.7956 29.5409 39.5434 29.5409H37.6004V21.1012C38.204 20.9773 38.8186 20.9164 39.4346 20.9196C39.6868 20.9196 39.8912 20.7141 39.8912 20.4606C39.8912 20.2071 39.6868 20.0016 39.4346 20.0016H39.4268C38.0985 19.9759 36.7824 20.2601 35.5817 20.8317L35.5797 20.8454Z" fill="white"/>
</mask>
<g mask="url(#mask1_203_6403)">
<rect x="20" y="20" width="20" height="20.1923" fill="#027A4C"/>
<mask id="mask2_203_6403" style="mask-type:luminance" maskUnits="userSpaceOnUse" x="20" y="20" width="20" height="21">
<rect x="20" y="20" width="20" height="20.1923" fill="white"/>
</mask>
<g mask="url(#mask2_203_6403)">
</g>
</g>
</svg>
