<svg fill="none" xmlns="http://www.w3.org/2000/svg" viewBox="0 0 165 40"><rect width="40" height="40" rx="3" fill="#027A4C"/><mask id="a" style="mask-type:luminance" maskUnits="userSpaceOnUse" x="0" y="0" width="40" height="40"><rect width="40" height="40" rx="3" fill="#fff"/></mask><g mask="url(#a)" fill-rule="evenodd" clip-rule="evenodd"><path d="M34.018 1.333 73.37 42.667H-5.333L34.018 1.333Z" fill="#04BA74"/><path d="m4.685 25.333 39.351 41.334h-78.703L4.685 25.333Z" fill="#12AE72"/><path d="m26 18.667 28 30H-2l28-30Z" fill="#07E08D"/></g><circle cx="20" cy="20" r="11.333" fill="#fff"/><mask id="b" style="mask-type:luminance" maskUnits="userSpaceOnUse" x="13" y="13" width="14" height="14"><path fill-rule="evenodd" clip-rule="evenodd" d="M17.957 20.306h1.569c-.462 1.224-.938 2.413-1.572 3.374l.003-3.374Zm-2.37 0h1.76v4.167a4.645 4.645 0 0 1-1.39 1.071c-.12.059-.242.112-.37.162v-5.4Zm4.82-.61c.488-1.294.992-2.546 1.683-3.539v3.54h-1.684Zm4.047 0h-1.759V15.4a4.572 4.572 0 0 1 1.768-1.153v5.455l-.009-.005Zm-.734-5.8a5.368 5.368 0 0 0-1.798 1.468c-.977 1.206-1.576 2.776-2.166 4.334H13.66a.309.309 0 0 0-.04.613h1.358v5.6a5.774 5.774 0 0 1-1.319.141.307.307 0 0 0-.04.613h.04a5.7 5.7 0 0 0 2.569-.553 5.35 5.35 0 0 0 1.786-1.474c.977-1.207 1.578-2.77 2.162-4.332h6.186a.305.305 0 0 0 .305-.306.305.305 0 0 0-.305-.306h-1.295v-5.626a5.93 5.93 0 0 1 1.223-.122.305.305 0 0 0 .304-.306.305.305 0 0 0-.304-.306h-.005a5.706 5.706 0 0 0-2.564.554l-.001.009Z" fill="#fff"/></mask><g mask="url(#b)"><path fill="#027A4C" d="M13.333 13.333h13.333v13.461H13.333z"/><mask id="c" style="mask-type:luminance" maskUnits="userSpaceOnUse" x="13" y="13" width="14" height="14"><path fill="#fff" d="M13.333 13.333h13.333v13.461H13.333z"/></mask></g><path d="M56.46 15.602c-1.254 0-2.246.419-2.976 1.257-.724.834-1.086 1.977-1.086 3.43 0 1.495.35 2.651 1.047 3.469.703.812 1.703 1.219 3 1.219.797 0 1.706-.144 2.727-.43v1.164c-.792.297-1.768.445-2.93.445-1.682 0-2.982-.51-3.898-1.531-.912-1.02-1.367-2.471-1.367-4.352 0-1.177.218-2.208.656-3.093a4.77 4.77 0 0 1 1.906-2.047c.833-.48 1.813-.719 2.938-.719 1.198 0 2.244.219 3.14.656l-.562 1.14c-.865-.405-1.73-.608-2.594-.608Zm12.4 6.109c0 1.396-.352 2.487-1.055 3.273-.703.782-1.675 1.172-2.914 1.172-.766 0-1.446-.18-2.04-.539-.593-.36-1.051-.875-1.374-1.547-.323-.672-.485-1.458-.485-2.36 0-1.395.35-2.48 1.047-3.257.698-.781 1.667-1.172 2.906-1.172 1.198 0 2.149.399 2.852 1.196.708.796 1.062 1.875 1.062 3.234Zm-6.524 0c0 1.094.219 1.927.656 2.5.438.573 1.08.86 1.93.86.849 0 1.492-.285 1.93-.852.442-.573.664-1.41.664-2.508 0-1.089-.222-1.914-.664-2.477-.438-.567-1.086-.851-1.946-.851-.849 0-1.49.279-1.922.836-.432.557-.648 1.388-.648 2.492Zm10.023-4.273v5.554c0 .698.16 1.219.477 1.563.318.343.815.515 1.492.515.896 0 1.55-.244 1.961-.734.417-.49.625-1.29.625-2.398v-4.5h1.297V26h-1.07l-.188-1.148h-.07a2.58 2.58 0 0 1-1.11.968c-.468.224-1.005.336-1.609.336-1.042 0-1.823-.247-2.344-.742-.515-.495-.773-1.286-.773-2.375v-5.602h1.312Zm12.516-.157c.38 0 .721.032 1.023.094l-.18 1.203a4.42 4.42 0 0 0-.937-.117c-.693 0-1.286.281-1.781.844-.49.562-.734 1.263-.734 2.101V26h-1.297v-8.563h1.07l.148 1.586h.063c.318-.557.7-.986 1.148-1.289.448-.302.94-.453 1.477-.453Zm8.148 6.383c0 .797-.296 1.412-.89 1.844-.594.432-1.427.648-2.5.648-1.136 0-2.021-.18-2.656-.539v-1.203a6.44 6.44 0 0 0 1.32.492c.474.12.93.18 1.367.18.677 0 1.198-.107 1.563-.32.364-.22.546-.55.546-.993 0-.333-.145-.617-.437-.851-.287-.24-.849-.521-1.688-.844-.796-.297-1.364-.555-1.703-.773-.333-.224-.583-.477-.75-.758-.161-.281-.242-.617-.242-1.008 0-.698.284-1.247.852-1.648.567-.407 1.346-.61 2.336-.61.921 0 1.822.188 2.703.563l-.461 1.054c-.86-.354-1.638-.53-2.336-.53-.615 0-1.078.096-1.39.288-.313.193-.47.459-.47.797 0 .23.058.425.172.586.12.162.31.315.57.461.261.146.761.357 1.5.633 1.016.37 1.701.742 2.055 1.117.36.375.54.846.54 1.414Zm5.735 2.492c-1.266 0-2.266-.385-3-1.156-.73-.77-1.094-1.841-1.094-3.21 0-1.381.339-2.477 1.016-3.29.682-.813 1.596-1.219 2.742-1.219 1.073 0 1.922.354 2.547 1.063.625.703.937 1.633.937 2.789v.82h-5.898c.026 1.005.279 1.768.758 2.29.484.52 1.164.78 2.039.78.922 0 1.833-.192 2.734-.578v1.157a6.612 6.612 0 0 1-1.305.421c-.406.089-.898.133-1.476.133Zm-.352-7.789c-.687 0-1.237.224-1.648.672-.406.448-.646 1.068-.719 1.86h4.477c0-.818-.183-1.443-.547-1.876-.365-.437-.886-.656-1.563-.656ZM105.648 26h-1.328V14.578h6.368v1.18h-5.04v4.18h4.735v1.18h-4.735V26Zm8.04 0h-1.297V13.844h1.297V26Zm10.14-4.29c0 1.397-.351 2.488-1.055 3.274-.703.782-1.674 1.172-2.914 1.172-.765 0-1.445-.18-2.039-.539-.593-.36-1.052-.875-1.375-1.547-.323-.672-.484-1.458-.484-2.36 0-1.395.349-2.48 1.047-3.257.698-.781 1.666-1.172 2.906-1.172 1.198 0 2.148.399 2.852 1.196.708.796 1.062 1.875 1.062 3.234Zm-6.523 0c0 1.095.218 1.928.656 2.5.437.574 1.081.86 1.93.86s1.492-.284 1.929-.851c.443-.573.664-1.41.664-2.508 0-1.089-.221-1.914-.664-2.477-.437-.567-1.086-.851-1.945-.851-.849 0-1.49.279-1.922.836-.432.557-.648 1.388-.648 2.492ZM133.102 26l-1.571-5.023c-.099-.308-.284-1.006-.554-2.094h-.063a28.583 28.583 0 0 1-.547 2.11L128.75 26h-1.5l-2.336-8.563h1.359c.553 2.151.972 3.79 1.258 4.915.292 1.125.459 1.882.5 2.273h.063c.057-.297.148-.68.273-1.148.13-.474.242-.85.336-1.125l1.57-4.915h1.407l1.531 4.915c.292.895.49 1.648.594 2.257h.062c.021-.187.076-.476.164-.867.094-.39.638-2.492 1.633-6.305h1.344L134.641 26h-1.539Z" fill="#414141"/></svg>