<?xml version="1.0" encoding="UTF-8" standalone="no"?>
<!-- Created with Inkscape (http://www.inkscape.org/) -->

<svg
   xmlns:dc="http://purl.org/dc/elements/1.1/"
   xmlns:cc="http://creativecommons.org/ns#"
   xmlns:rdf="http://www.w3.org/1999/02/22-rdf-syntax-ns#"
   xmlns:svg="http://www.w3.org/2000/svg"
   xmlns="http://www.w3.org/2000/svg"
   xmlns:sodipodi="http://sodipodi.sourceforge.net/DTD/sodipodi-0.dtd"
   xmlns:inkscape="http://www.inkscape.org/namespaces/inkscape"
   width="36.014771mm"
   height="36.014771mm"
   viewBox="0 0 127.61139 127.61139"
   id="svg2"
   version="1.1"
   inkscape:version="0.91 r13725"
   sodipodi:docname="gears.svg">
  <defs
     id="defs4">
    <marker
       inkscape:stockid="Arrow2Send"
       orient="auto"
       refY="0"
       refX="0"
       id="Arrow2Send"
       style="overflow:visible"
       inkscape:isstock="true">
      <path
         id="path8271"
         style="fill:#000000;fill-opacity:1;fill-rule:evenodd;stroke:#000000;stroke-width:0.625;stroke-linejoin:round;stroke-opacity:1"
         d="M 8.7185878,4.0337352 -2.2072895,0.01601326 8.7185884,-4.0017078 c -1.7454984,2.3720609 -1.7354408,5.6174519 -6e-7,8.035443 z"
         transform="matrix(-0.3,0,0,-0.3,0.69,0)"
         inkscape:connector-curvature="0" />
    </marker>
    <marker
       inkscape:isstock="true"
       style="overflow:visible"
       id="marker9676"
       refX="0"
       refY="0"
       orient="auto"
       inkscape:stockid="Arrow2Send">
      <path
         transform="matrix(-0.3,0,0,-0.3,0.69,0)"
         d="M 8.7185878,4.0337352 -2.2072895,0.01601326 8.7185884,-4.0017078 c -1.7454984,2.3720609 -1.7354408,5.6174519 -6e-7,8.035443 z"
         style="fill:#000000;fill-opacity:1;fill-rule:evenodd;stroke:#000000;stroke-width:0.625;stroke-linejoin:round;stroke-opacity:1"
         id="path9678"
         inkscape:connector-curvature="0" />
    </marker>
    <marker
       inkscape:isstock="true"
       style="overflow:visible"
       id="marker9570"
       refX="0"
       refY="0"
       orient="auto"
       inkscape:stockid="Arrow2Send">
      <path
         transform="matrix(-0.3,0,0,-0.3,0.69,0)"
         d="M 8.7185878,4.0337352 -2.2072895,0.01601326 8.7185884,-4.0017078 c -1.7454984,2.3720609 -1.7354408,5.6174519 -6e-7,8.035443 z"
         style="fill:#000000;fill-opacity:1;fill-rule:evenodd;stroke:#000000;stroke-width:0.625;stroke-linejoin:round;stroke-opacity:1"
         id="path9572"
         inkscape:connector-curvature="0" />
    </marker>
    <marker
       inkscape:isstock="true"
       style="overflow:visible"
       id="marker9470"
       refX="0"
       refY="0"
       orient="auto"
       inkscape:stockid="Arrow2Send">
      <path
         transform="matrix(-0.3,0,0,-0.3,0.69,0)"
         d="M 8.7185878,4.0337352 -2.2072895,0.01601326 8.7185884,-4.0017078 c -1.7454984,2.3720609 -1.7354408,5.6174519 -6e-7,8.035443 z"
         style="fill:#000000;fill-opacity:1;fill-rule:evenodd;stroke:#000000;stroke-width:0.625;stroke-linejoin:round;stroke-opacity:1"
         id="path9472"
         inkscape:connector-curvature="0" />
    </marker>
    <marker
       inkscape:isstock="true"
       style="overflow:visible"
       id="marker9358"
       refX="0"
       refY="0"
       orient="auto"
       inkscape:stockid="Arrow2Send">
      <path
         transform="matrix(-0.3,0,0,-0.3,0.69,0)"
         d="M 8.7185878,4.0337352 -2.2072895,0.01601326 8.7185884,-4.0017078 c -1.7454984,2.3720609 -1.7354408,5.6174519 -6e-7,8.035443 z"
         style="fill:#000000;fill-opacity:1;fill-rule:evenodd;stroke:#000000;stroke-width:0.625;stroke-linejoin:round;stroke-opacity:1"
         id="path9360"
         inkscape:connector-curvature="0" />
    </marker>
    <marker
       inkscape:isstock="true"
       style="overflow:visible"
       id="marker9270"
       refX="0"
       refY="0"
       orient="auto"
       inkscape:stockid="Arrow2Send">
      <path
         transform="matrix(-0.3,0,0,-0.3,0.69,0)"
         d="M 8.7185878,4.0337352 -2.2072895,0.01601326 8.7185884,-4.0017078 c -1.7454984,2.3720609 -1.7354408,5.6174519 -6e-7,8.035443 z"
         style="fill:#000000;fill-opacity:1;fill-rule:evenodd;stroke:#000000;stroke-width:0.625;stroke-linejoin:round;stroke-opacity:1"
         id="path9272"
         inkscape:connector-curvature="0" />
    </marker>
    <marker
       inkscape:isstock="true"
       style="overflow:visible"
       id="marker9188"
       refX="0"
       refY="0"
       orient="auto"
       inkscape:stockid="Arrow2Send">
      <path
         transform="matrix(-0.3,0,0,-0.3,0.69,0)"
         d="M 8.7185878,4.0337352 -2.2072895,0.01601326 8.7185884,-4.0017078 c -1.7454984,2.3720609 -1.7354408,5.6174519 -6e-7,8.035443 z"
         style="fill:#000000;fill-opacity:1;fill-rule:evenodd;stroke:#000000;stroke-width:0.625;stroke-linejoin:round;stroke-opacity:1"
         id="path9190"
         inkscape:connector-curvature="0" />
    </marker>
    <marker
       inkscape:stockid="Arrow1Send"
       orient="auto"
       refY="0"
       refX="0"
       id="Arrow1Send"
       style="overflow:visible"
       inkscape:isstock="true">
      <path
         id="path8253"
         d="M 0,0 5,-5 -12.5,0 5,5 0,0 Z"
         style="fill:#000000;fill-opacity:1;fill-rule:evenodd;stroke:#000000;stroke-width:1pt;stroke-opacity:1"
         transform="matrix(-0.2,0,0,-0.2,-1.2,0)"
         inkscape:connector-curvature="0" />
    </marker>
    <marker
       inkscape:stockid="Arrow2Mend"
       orient="auto"
       refY="0"
       refX="0"
       id="Arrow2Mend"
       style="overflow:visible"
       inkscape:isstock="true">
      <path
         id="path8265"
         style="fill:#000000;fill-opacity:1;fill-rule:evenodd;stroke:#000000;stroke-width:0.625;stroke-linejoin:round;stroke-opacity:1"
         d="M 8.7185878,4.0337352 -2.2072895,0.01601326 8.7185884,-4.0017078 c -1.7454984,2.3720609 -1.7354408,5.6174519 -6e-7,8.035443 z"
         transform="scale(-0.6,-0.6)"
         inkscape:connector-curvature="0" />
    </marker>
    <marker
       inkscape:isstock="true"
       style="overflow:visible"
       id="marker8971-6"
       refX="0"
       refY="0"
       orient="auto"
       inkscape:stockid="Arrow2Send">
      <path
         inkscape:connector-curvature="0"
         transform="matrix(-0.3,0,0,-0.3,0.69,0)"
         d="M 8.7185878,4.0337352 -2.2072895,0.01601326 8.7185884,-4.0017078 c -1.7454984,2.3720609 -1.7354408,5.6174519 -6e-7,8.035443 z"
         style="fill:#000000;fill-opacity:1;fill-rule:evenodd;stroke:#000000;stroke-width:0.625;stroke-linejoin:round;stroke-opacity:1"
         id="path8973-9" />
    </marker>
    <marker
       inkscape:isstock="true"
       style="overflow:visible"
       id="marker9091"
       refX="0"
       refY="0"
       orient="auto"
       inkscape:stockid="Arrow2Send">
      <path
         inkscape:connector-curvature="0"
         transform="matrix(-0.3,0,0,-0.3,0.69,0)"
         d="M 8.7185878,4.0337352 -2.2072895,0.01601326 8.7185884,-4.0017078 c -1.7454984,2.3720609 -1.7354408,5.6174519 -6e-7,8.035443 z"
         style="fill:#000000;fill-opacity:1;fill-rule:evenodd;stroke:#000000;stroke-width:0.625;stroke-linejoin:round;stroke-opacity:1"
         id="path9093" />
    </marker>
    <marker
       inkscape:stockid="Arrow2Send"
       orient="auto"
       refY="0"
       refX="0"
       id="Arrow2Send-1-6-8-7"
       style="overflow:visible"
       inkscape:isstock="true">
      <path
         inkscape:connector-curvature="0"
         id="path4643-2-6-5-17"
         style="fill:#ffffff;fill-opacity:1;fill-rule:evenodd;stroke:#000000;stroke-width:0.625;stroke-linejoin:round;stroke-opacity:1"
         d="M 8.7185878,4.0337352 -2.2072895,0.01601326 8.7185884,-4.0017078 c -1.7454984,2.3720609 -1.7354408,5.6174519 -6e-7,8.035443 z"
         transform="matrix(-0.3,0,0,-0.3,0.69,0)" />
    </marker>
    <marker
       inkscape:stockid="Arrow2Send"
       orient="auto"
       refY="0"
       refX="0"
       id="Arrow2Send-1-6-8-5"
       style="overflow:visible"
       inkscape:isstock="true">
      <path
         inkscape:connector-curvature="0"
         id="path4643-2-6-5-1"
         style="fill:#000000;fill-opacity:1;fill-rule:evenodd;stroke:#000000;stroke-width:0.625;stroke-linejoin:round;stroke-opacity:1"
         d="M 8.7185878,4.0337352 -2.2072895,0.01601326 8.7185884,-4.0017078 c -1.7454984,2.3720609 -1.7354408,5.6174519 -6e-7,8.035443 z"
         transform="matrix(-0.3,0,0,-0.3,0.69,0)" />
    </marker>
    <marker
       inkscape:stockid="Arrow2Send"
       orient="auto"
       refY="0"
       refX="0"
       id="Arrow2Send-1-6-8"
       style="overflow:visible"
       inkscape:isstock="true">
      <path
         inkscape:connector-curvature="0"
         id="path4643-2-6-5"
         style="fill:#000000;fill-opacity:1;fill-rule:evenodd;stroke:#000000;stroke-width:0.625;stroke-linejoin:round;stroke-opacity:1"
         d="M 8.7185878,4.0337352 -2.2072895,0.01601326 8.7185884,-4.0017078 c -1.7454984,2.3720609 -1.7354408,5.6174519 -6e-7,8.035443 z"
         transform="matrix(-0.3,0,0,-0.3,0.69,0)" />
    </marker>
    <marker
       inkscape:stockid="Arrow2Send"
       orient="auto"
       refY="0"
       refX="0"
       id="Arrow2Send-2-2"
       style="overflow:visible"
       inkscape:isstock="true">
      <path
         inkscape:connector-curvature="0"
         id="path4643-4-7"
         style="fill:#ffffff;fill-opacity:1;fill-rule:evenodd;stroke:#000000;stroke-width:0.625;stroke-linejoin:round;stroke-opacity:1"
         d="M 8.7185878,4.0337352 -2.2072895,0.01601326 8.7185884,-4.0017078 c -1.7454984,2.3720609 -1.7354408,5.6174519 -6e-7,8.035443 z"
         transform="matrix(-0.3,0,0,-0.3,0.69,0)" />
    </marker>
  </defs>
  <sodipodi:namedview
     id="base"
     pagecolor="#ffffff"
     bordercolor="#666666"
     borderopacity="1.0"
     inkscape:pageopacity="0.0"
     inkscape:pageshadow="2"
     inkscape:zoom="2.8"
     inkscape:cx="62.599291"
     inkscape:cy="63.630084"
     inkscape:document-units="px"
     inkscape:current-layer="layer1"
     showgrid="false"
     inkscape:window-width="1920"
     inkscape:window-height="1017"
     inkscape:window-x="1912"
     inkscape:window-y="-8"
     inkscape:window-maximized="1" />
  <metadata
     id="metadata7">
    <rdf:RDF>
      <cc:Work
         rdf:about="">
        <dc:format>image/svg+xml</dc:format>
        <dc:type
           rdf:resource="http://purl.org/dc/dcmitype/StillImage" />
        <dc:title />
      </cc:Work>
    </rdf:RDF>
  </metadata>
  <g
     inkscape:label="Layer 1"
     inkscape:groupmode="layer"
     id="layer1"
     transform="translate(193.48698,-430.73779)">
    <rect
       inkscape:export-ydpi="352.63303"
       inkscape:export-xdpi="352.63303"
       y="430.73779"
       x="-193.48698"
       height="127.6114"
       width="127.6114"
       id="rect9002"
       style="color:#000000;clip-rule:nonzero;display:inline;overflow:visible;visibility:visible;opacity:1;isolation:auto;mix-blend-mode:normal;color-interpolation:sRGB;color-interpolation-filters:linearRGB;solid-color:#000000;solid-opacity:1;fill:none;fill-opacity:1;fill-rule:nonzero;stroke:none;stroke-width:1.36513996;stroke-linecap:round;stroke-linejoin:round;stroke-miterlimit:4;stroke-dasharray:none;stroke-dashoffset:0;stroke-opacity:1;color-rendering:auto;image-rendering:auto;shape-rendering:auto;text-rendering:auto;enable-background:accumulate" />
    <g
       id="g9083"
       transform="matrix(-1.3462955,0,0,1.3462955,-4248.916,-418.48823)">
      <path
         sodipodi:type="star"
         style="color:#000000;clip-rule:nonzero;display:inline;overflow:visible;visibility:visible;opacity:1;isolation:auto;mix-blend-mode:normal;color-interpolation:sRGB;color-interpolation-filters:linearRGB;solid-color:#000000;solid-opacity:1;fill:none;fill-opacity:1;fill-rule:nonzero;stroke:#000000;stroke-width:2.51239347;stroke-linecap:butt;stroke-linejoin:miter;stroke-miterlimit:2.70000005;stroke-dasharray:none;stroke-dashoffset:5.80000067;stroke-opacity:1;color-rendering:auto;image-rendering:auto;shape-rendering:auto;text-rendering:auto;enable-background:accumulate"
         id="path9057"
         sodipodi:sides="11"
         sodipodi:cx="-3049.595"
         sodipodi:cy="668.61157"
         sodipodi:r1="25.475115"
         sodipodi:r2="30.076788"
         sodipodi:arg1="0.27213792"
         sodipodi:arg2="0.55773725"
         inkscape:flatsided="false"
         inkscape:rounded="0.85"
         inkscape:randomized="0"
         d="m -3025.0574,675.45906 c -2.0846,7.47007 5.086,2.49101 0.9812,9.07119 -4.1047,6.58017 -2.7862,-2.04938 -8.5785,3.10782 -5.7923,5.1572 2.9319,4.84523 -4.0788,8.16165 -7.0106,3.31641 -1.2359,-3.23037 -8.8969,-2.02342 -7.661,1.20695 -0.1531,5.66113 -7.8438,4.66084 -7.6907,-1.00028 0.7067,-3.38574 -6.3906,-6.51223 -7.0974,-3.12649 -3.1895,4.67965 -9.1185,-0.31975 -5.9291,-4.9994 2.425,-2.46617 -1.8554,-8.93347 -4.2803,-6.46729 -5.2131,2.21243 -7.4981,-5.19881 -2.2849,-7.41125 3.3734,-0.76361 3.269,-8.51839 -0.1044,-7.75478 -5.5817,-0.95723 -3.4971,-8.4273 2.0846,-7.47006 3.2507,1.1814 7.3554,-5.39877 4.1048,-6.58018 -4.1781,-3.82298 1.6142,-8.98018 5.7923,-5.1572 2.096,2.75132 9.1066,-0.56509 7.0106,-3.31642 -1.448,-5.47496 6.213,-6.68191 7.661,-1.20696 0.2758,3.44771 7.9665,4.448 7.6907,1.00029 1.7418,-5.38867 8.8392,-2.26218 7.0973,3.12649 -1.632,3.04948 4.297,8.04888 5.929,4.99941 4.3787,-3.59152 8.6591,2.87577 4.2803,6.4673 -3.0216,1.68307 -0.7367,9.09431 2.2849,7.41125 5.6253,-0.65409 5.7297,7.10069 0.1044,7.75478 -3.4519,-0.21772 -5.5365,7.25235 z"
         inkscape:export-xdpi="306.42145"
         inkscape:export-ydpi="306.42145" />
      <g
         id="g9079">
        <path
           inkscape:export-ydpi="306.42145"
           inkscape:export-xdpi="306.42145"
           d="m -3046.2028,668.59279 a 3.3451159,3.3451159 0 0 1 -3.3634,3.32472 3.3451159,3.3451159 0 0 1 -3.3267,-3.3614 3.3451159,3.3451159 0 0 1 3.3594,-3.32875 3.3451159,3.3451159 0 0 1 3.3307,3.35742"
           sodipodi:open="true"
           sodipodi:end="0.0036851754"
           sodipodi:start="0.0060806573"
           sodipodi:ry="3.3451159"
           sodipodi:rx="3.3451159"
           sodipodi:cy="668.57245"
           sodipodi:cx="-3049.5479"
           sodipodi:type="arc"
           id="path9059"
           style="color:#000000;clip-rule:nonzero;display:inline;overflow:visible;visibility:visible;opacity:1;isolation:auto;mix-blend-mode:normal;color-interpolation:sRGB;color-interpolation-filters:linearRGB;solid-color:#000000;solid-opacity:1;fill:none;fill-opacity:1;fill-rule:nonzero;stroke:#000000;stroke-width:2.51239347;stroke-linecap:butt;stroke-linejoin:miter;stroke-miterlimit:2.70000005;stroke-dasharray:none;stroke-dashoffset:5.80000067;stroke-opacity:1;color-rendering:auto;image-rendering:auto;shape-rendering:auto;text-rendering:auto;enable-background:accumulate" />
        <path
           inkscape:export-ydpi="306.42145"
           inkscape:export-xdpi="306.42145"
           style="color:#000000;clip-rule:nonzero;display:inline;overflow:visible;visibility:visible;opacity:1;isolation:auto;mix-blend-mode:normal;color-interpolation:sRGB;color-interpolation-filters:linearRGB;solid-color:#000000;solid-opacity:1;fill:none;fill-opacity:1;fill-rule:nonzero;stroke:#000000;stroke-width:2.51239347;stroke-linecap:butt;stroke-linejoin:miter;stroke-miterlimit:2.70000005;stroke-dasharray:none;stroke-dashoffset:5.80000067;stroke-opacity:1;color-rendering:auto;image-rendering:auto;shape-rendering:auto;text-rendering:auto;enable-background:accumulate"
           id="path9061"
           sodipodi:type="arc"
           sodipodi:cx="-3049.519"
           sodipodi:cy="668.55737"
           sodipodi:rx="15.654218"
           sodipodi:ry="15.654218"
           sodipodi:start="0.0060806573"
           sodipodi:end="0.0036851754"
           sodipodi:open="true"
           d="m -3033.8651,668.65256 a 15.654218,15.654218 0 0 1 -15.7398,15.5588 15.654218,15.654218 0 0 1 -15.5682,-15.73042 15.654218,15.654218 0 0 1 15.7211,-15.57764 15.654218,15.654218 0 0 1 15.5871,15.71176" />
      </g>
    </g>
    <g
       id="g9069"
       transform="matrix(-1.3462955,0,0,1.3462955,-4188.4622,-434.81146)">
      <path
         inkscape:export-ydpi="306.42145"
         inkscape:export-xdpi="306.42145"
         d="m -3023.502,715.77668 c -1.6919,6.06302 3.0602,2.59563 -1.0949,7.32411 -4.155,4.72848 -1.3274,-0.42996 -7.1225,2.02745 -5.7952,2.4574 -0.1214,4.01086 -6.4089,3.71048 -6.2875,-0.30039 -0.4915,-1.30588 -6.026,-4.30456 -5.5345,-2.99868 -3.2115,2.40584 -6.8968,-2.69721 -3.6854,-5.10305 0.7145,-1.19843 -0.3917,-7.39513 -1.1063,-6.19671 -3.8833,-1.01084 -2.1914,-7.07386 1.692,-6.06302 1.3825,-0.18854 5.5376,-4.91702 4.155,-4.72848 -1.6309,-3.66633 4.1642,-6.12374 5.7952,-2.45741 1.0094,0.96332 7.2969,1.2637 6.2875,0.30038 1.8496,-3.561 7.3841,-0.56232 5.5346,2.99868 -0.1238,1.38978 3.5616,6.49284 3.6853,5.10305 3.9373,-0.77417 5.0435,5.42253 1.1063,6.1967 -1.1637,0.76971 -2.8557,6.83273 z"
         inkscape:randomized="0"
         inkscape:rounded="0.85"
         inkscape:flatsided="false"
         sodipodi:arg2="0.72093687"
         sodipodi:arg1="0.27213792"
         sodipodi:r2="16.937418"
         sodipodi:r1="14.346036"
         sodipodi:cy="711.92059"
         sodipodi:cx="-3037.3201"
         sodipodi:sides="7"
         id="path9063"
         style="color:#000000;clip-rule:nonzero;display:inline;overflow:visible;visibility:visible;opacity:1;isolation:auto;mix-blend-mode:normal;color-interpolation:sRGB;color-interpolation-filters:linearRGB;solid-color:#000000;solid-opacity:1;fill:none;fill-opacity:1;fill-rule:nonzero;stroke:#000000;stroke-width:2.51239347;stroke-linecap:butt;stroke-linejoin:miter;stroke-miterlimit:2.70000005;stroke-dasharray:none;stroke-dashoffset:5.80000067;stroke-opacity:1;color-rendering:auto;image-rendering:auto;shape-rendering:auto;text-rendering:auto;enable-background:accumulate"
         sodipodi:type="star" />
      <path
         inkscape:export-ydpi="306.42145"
         inkscape:export-xdpi="306.42145"
         d="m -3035.0326,711.90402 a 2.2926874,2.2926874 0 0 1 -2.3052,2.27871 2.2926874,2.2926874 0 0 1 -2.2801,-2.30385 2.2926874,2.2926874 0 0 1 2.3025,-2.28147 2.2926874,2.2926874 0 0 1 2.2829,2.30111"
         sodipodi:open="true"
         sodipodi:end="0.0036851754"
         sodipodi:start="0.0060806573"
         sodipodi:ry="2.2926874"
         sodipodi:rx="2.2926874"
         sodipodi:cy="711.89008"
         sodipodi:cx="-3037.3252"
         sodipodi:type="arc"
         id="path9065"
         style="color:#000000;clip-rule:nonzero;display:inline;overflow:visible;visibility:visible;opacity:1;isolation:auto;mix-blend-mode:normal;color-interpolation:sRGB;color-interpolation-filters:linearRGB;solid-color:#000000;solid-opacity:1;fill:none;fill-opacity:1;fill-rule:nonzero;stroke:#000000;stroke-width:2.51239347;stroke-linecap:butt;stroke-linejoin:miter;stroke-miterlimit:2.70000005;stroke-dasharray:none;stroke-dashoffset:5.80000067;stroke-opacity:1;color-rendering:auto;image-rendering:auto;shape-rendering:auto;text-rendering:auto;enable-background:accumulate" />
      <path
         inkscape:export-ydpi="306.42145"
         inkscape:export-xdpi="306.42145"
         style="color:#000000;clip-rule:nonzero;display:inline;overflow:visible;visibility:visible;opacity:1;isolation:auto;mix-blend-mode:normal;color-interpolation:sRGB;color-interpolation-filters:linearRGB;solid-color:#000000;solid-opacity:1;fill:none;fill-opacity:1;fill-rule:nonzero;stroke:#000000;stroke-width:2.51239347;stroke-linecap:butt;stroke-linejoin:miter;stroke-miterlimit:2.70000005;stroke-dasharray:none;stroke-dashoffset:5.80000067;stroke-opacity:1;color-rendering:auto;image-rendering:auto;shape-rendering:auto;text-rendering:auto;enable-background:accumulate"
         id="path9067"
         sodipodi:type="arc"
         sodipodi:cx="-3037.3052"
         sodipodi:cy="711.87982"
         sodipodi:rx="10.729141"
         sodipodi:ry="10.729141"
         sodipodi:start="0.0060806573"
         sodipodi:end="0.0036851754"
         sodipodi:open="true"
         d="m -3026.5762,711.94506 a 10.729141,10.729141 0 0 1 -10.7878,10.66374 10.729141,10.729141 0 0 1 -10.6702,-10.78137 10.729141,10.729141 0 0 1 10.775,-10.67665 10.729141,10.729141 0 0 1 10.6831,10.76858" />
    </g>
  </g>
</svg>
