<svg xmlns="http://www.w3.org/2000/svg" xmlns:xlink="http://www.w3.org/1999/xlink" viewBox="0 0 154 30"><defs><linearGradient x1="50%" y1="0%" x2="50%" y2="100%" id="a"><stop stop-color="#46C443" offset="0%"/><stop stop-color="#1976BC" offset="100%"/></linearGradient><path d="M6.026 8.979h1.997c-.587 1.549-1.194 3.054-2 4.27l.003-4.27zm-3.014 0H5.25v5.274a5.906 5.906 0 01-1.769 1.357 5.801 5.801 0 01-.471.204V8.98h.002zm6.131-.772c.622-1.638 1.263-3.224 2.143-4.48v4.482H9.143v-.002zm5.152 0h-2.239v-5.44a5.817 5.817 0 012.25-1.458v6.905l-.011-.007zM13.36.865a6.824 6.824 0 00-2.288 1.858C9.829 4.25 9.066 6.237 8.316 8.21H.559a.389.389 0 10-.051.776h1.727v7.088a7.38 7.38 0 01-1.678.18.389.389 0 10-.051.776h.051a7.286 7.286 0 003.269-.7 6.8 6.8 0 002.273-1.866c1.243-1.528 2.008-3.506 2.751-5.484h7.873a.387.387 0 000-.775h-1.649V1.08A7.582 7.582 0 0116.63.928a.387.387 0 100-.775h-.006a7.294 7.294 0 00-3.262.7l-.002.012z" id="b"/></defs><g fill="none" fill-rule="evenodd"><text font-family="OpenSans, Open Sans" font-size="18" letter-spacing=".8" fill="#414141"><tspan x="40" y="24">CourseFlow</tspan></text><g><circle fill="url(#a)" cx="15" cy="15" r="15"/><path d="M12.476 15.42h1.997c-.587 1.55-1.194 3.055-2 4.271l.003-4.27zm-3.014 0H11.7v5.275a5.906 5.906 0 01-1.769 1.357 5.801 5.801 0 01-.471.204V15.42h.002zm6.131-.771c.622-1.639 1.263-3.224 2.143-4.48v4.482h-2.143v-.002zm5.152 0h-2.239v-5.44a5.817 5.817 0 012.25-1.458v6.904l-.011-.006zm-.935-7.342a6.824 6.824 0 00-2.288 1.858c-1.243 1.526-2.006 3.514-2.756 5.486H7.009a.389.389 0 10-.051.776h1.727v7.088a7.38 7.38 0 01-1.678.18.389.389 0 10-.051.776h.051a7.286 7.286 0 003.269-.7 6.8 6.8 0 002.273-1.867c1.243-1.528 2.008-3.506 2.751-5.484h7.873a.387.387 0 100-.774h-1.649V7.523a7.582 7.582 0 011.556-.153.387.387 0 000-.775h-.006a7.294 7.294 0 00-3.262.7l-.002.012z" fill="#FFF" fill-rule="nonzero"/><g transform="translate(6.429 6.429)"><mask id="c" fill="#fff"><use xlink:href="#b"/></mask><use fill="#FFF" xlink:href="#b"/><path fill="#FFF" fill-rule="nonzero" mask="url(#c)" d="M.186.178h16.949v16.854H.186z"/></g></g></g></svg>