<?xml version="1.0" encoding="UTF-8" standalone="no"?>
<!-- Created with Inkscape (http://www.inkscape.org/) -->

<svg
   xmlns:dc="http://purl.org/dc/elements/1.1/"
   xmlns:cc="http://creativecommons.org/ns#"
   xmlns:rdf="http://www.w3.org/1999/02/22-rdf-syntax-ns#"
   xmlns:svg="http://www.w3.org/2000/svg"
   xmlns="http://www.w3.org/2000/svg"
   xmlns:sodipodi="http://sodipodi.sourceforge.net/DTD/sodipodi-0.dtd"
   xmlns:inkscape="http://www.inkscape.org/namespaces/inkscape"
   width="55.878349mm"
   height="55.346695mm"
   viewBox="0 0 197.99415 196.11034"
   id="svg2"
   version="1.1"
   inkscape:version="0.91 r13725"
   sodipodi:docname="peerreview.svg">
  <defs
     id="defs4">
    <marker
       inkscape:stockid="Arrow2Send"
       orient="auto"
       refY="0"
       refX="0"
       id="Arrow2Send"
       style="overflow:visible"
       inkscape:isstock="true">
      <path
         id="path8271"
         style="fill:#000000;fill-opacity:1;fill-rule:evenodd;stroke:#000000;stroke-width:0.625;stroke-linejoin:round;stroke-opacity:1"
         d="M 8.7185878,4.0337352 -2.2072895,0.01601326 8.7185884,-4.0017078 c -1.7454984,2.3720609 -1.7354408,5.6174519 -6e-7,8.035443 z"
         transform="matrix(-0.3,0,0,-0.3,0.69,0)"
         inkscape:connector-curvature="0" />
    </marker>
    <marker
       inkscape:isstock="true"
       style="overflow:visible"
       id="marker9676"
       refX="0"
       refY="0"
       orient="auto"
       inkscape:stockid="Arrow2Send">
      <path
         transform="matrix(-0.3,0,0,-0.3,0.69,0)"
         d="M 8.7185878,4.0337352 -2.2072895,0.01601326 8.7185884,-4.0017078 c -1.7454984,2.3720609 -1.7354408,5.6174519 -6e-7,8.035443 z"
         style="fill:#000000;fill-opacity:1;fill-rule:evenodd;stroke:#000000;stroke-width:0.625;stroke-linejoin:round;stroke-opacity:1"
         id="path9678"
         inkscape:connector-curvature="0" />
    </marker>
    <marker
       inkscape:isstock="true"
       style="overflow:visible"
       id="marker9570"
       refX="0"
       refY="0"
       orient="auto"
       inkscape:stockid="Arrow2Send">
      <path
         transform="matrix(-0.3,0,0,-0.3,0.69,0)"
         d="M 8.7185878,4.0337352 -2.2072895,0.01601326 8.7185884,-4.0017078 c -1.7454984,2.3720609 -1.7354408,5.6174519 -6e-7,8.035443 z"
         style="fill:#000000;fill-opacity:1;fill-rule:evenodd;stroke:#000000;stroke-width:0.625;stroke-linejoin:round;stroke-opacity:1"
         id="path9572"
         inkscape:connector-curvature="0" />
    </marker>
    <marker
       inkscape:isstock="true"
       style="overflow:visible"
       id="marker9470"
       refX="0"
       refY="0"
       orient="auto"
       inkscape:stockid="Arrow2Send">
      <path
         transform="matrix(-0.3,0,0,-0.3,0.69,0)"
         d="M 8.7185878,4.0337352 -2.2072895,0.01601326 8.7185884,-4.0017078 c -1.7454984,2.3720609 -1.7354408,5.6174519 -6e-7,8.035443 z"
         style="fill:#000000;fill-opacity:1;fill-rule:evenodd;stroke:#000000;stroke-width:0.625;stroke-linejoin:round;stroke-opacity:1"
         id="path9472"
         inkscape:connector-curvature="0" />
    </marker>
    <marker
       inkscape:isstock="true"
       style="overflow:visible"
       id="marker9358"
       refX="0"
       refY="0"
       orient="auto"
       inkscape:stockid="Arrow2Send">
      <path
         transform="matrix(-0.3,0,0,-0.3,0.69,0)"
         d="M 8.7185878,4.0337352 -2.2072895,0.01601326 8.7185884,-4.0017078 c -1.7454984,2.3720609 -1.7354408,5.6174519 -6e-7,8.035443 z"
         style="fill:#000000;fill-opacity:1;fill-rule:evenodd;stroke:#000000;stroke-width:0.625;stroke-linejoin:round;stroke-opacity:1"
         id="path9360"
         inkscape:connector-curvature="0" />
    </marker>
    <marker
       inkscape:isstock="true"
       style="overflow:visible"
       id="marker9270"
       refX="0"
       refY="0"
       orient="auto"
       inkscape:stockid="Arrow2Send">
      <path
         transform="matrix(-0.3,0,0,-0.3,0.69,0)"
         d="M 8.7185878,4.0337352 -2.2072895,0.01601326 8.7185884,-4.0017078 c -1.7454984,2.3720609 -1.7354408,5.6174519 -6e-7,8.035443 z"
         style="fill:#000000;fill-opacity:1;fill-rule:evenodd;stroke:#000000;stroke-width:0.625;stroke-linejoin:round;stroke-opacity:1"
         id="path9272"
         inkscape:connector-curvature="0" />
    </marker>
    <marker
       inkscape:isstock="true"
       style="overflow:visible"
       id="marker9188"
       refX="0"
       refY="0"
       orient="auto"
       inkscape:stockid="Arrow2Send">
      <path
         transform="matrix(-0.3,0,0,-0.3,0.69,0)"
         d="M 8.7185878,4.0337352 -2.2072895,0.01601326 8.7185884,-4.0017078 c -1.7454984,2.3720609 -1.7354408,5.6174519 -6e-7,8.035443 z"
         style="fill:#000000;fill-opacity:1;fill-rule:evenodd;stroke:#000000;stroke-width:0.625;stroke-linejoin:round;stroke-opacity:1"
         id="path9190"
         inkscape:connector-curvature="0" />
    </marker>
    <marker
       inkscape:stockid="Arrow1Send"
       orient="auto"
       refY="0"
       refX="0"
       id="Arrow1Send"
       style="overflow:visible"
       inkscape:isstock="true">
      <path
         id="path8253"
         d="M 0,0 5,-5 -12.5,0 5,5 0,0 Z"
         style="fill:#000000;fill-opacity:1;fill-rule:evenodd;stroke:#000000;stroke-width:1pt;stroke-opacity:1"
         transform="matrix(-0.2,0,0,-0.2,-1.2,0)"
         inkscape:connector-curvature="0" />
    </marker>
    <marker
       inkscape:stockid="Arrow2Mend"
       orient="auto"
       refY="0"
       refX="0"
       id="Arrow2Mend"
       style="overflow:visible"
       inkscape:isstock="true">
      <path
         id="path8265"
         style="fill:#000000;fill-opacity:1;fill-rule:evenodd;stroke:#000000;stroke-width:0.625;stroke-linejoin:round;stroke-opacity:1"
         d="M 8.7185878,4.0337352 -2.2072895,0.01601326 8.7185884,-4.0017078 c -1.7454984,2.3720609 -1.7354408,5.6174519 -6e-7,8.035443 z"
         transform="scale(-0.6,-0.6)"
         inkscape:connector-curvature="0" />
    </marker>
    <marker
       inkscape:isstock="true"
       style="overflow:visible"
       id="marker8971-6"
       refX="0"
       refY="0"
       orient="auto"
       inkscape:stockid="Arrow2Send">
      <path
         inkscape:connector-curvature="0"
         transform="matrix(-0.3,0,0,-0.3,0.69,0)"
         d="M 8.7185878,4.0337352 -2.2072895,0.01601326 8.7185884,-4.0017078 c -1.7454984,2.3720609 -1.7354408,5.6174519 -6e-7,8.035443 z"
         style="fill:#000000;fill-opacity:1;fill-rule:evenodd;stroke:#000000;stroke-width:0.625;stroke-linejoin:round;stroke-opacity:1"
         id="path8973-9" />
    </marker>
    <marker
       inkscape:isstock="true"
       style="overflow:visible"
       id="marker9091"
       refX="0"
       refY="0"
       orient="auto"
       inkscape:stockid="Arrow2Send">
      <path
         inkscape:connector-curvature="0"
         transform="matrix(-0.3,0,0,-0.3,0.69,0)"
         d="M 8.7185878,4.0337352 -2.2072895,0.01601326 8.7185884,-4.0017078 c -1.7454984,2.3720609 -1.7354408,5.6174519 -6e-7,8.035443 z"
         style="fill:#000000;fill-opacity:1;fill-rule:evenodd;stroke:#000000;stroke-width:0.625;stroke-linejoin:round;stroke-opacity:1"
         id="path9093" />
    </marker>
    <marker
       inkscape:stockid="Arrow2Send"
       orient="auto"
       refY="0"
       refX="0"
       id="Arrow2Send-1-6-8-7"
       style="overflow:visible"
       inkscape:isstock="true">
      <path
         inkscape:connector-curvature="0"
         id="path4643-2-6-5-17"
         style="fill:#ffffff;fill-opacity:1;fill-rule:evenodd;stroke:#000000;stroke-width:0.625;stroke-linejoin:round;stroke-opacity:1"
         d="M 8.7185878,4.0337352 -2.2072895,0.01601326 8.7185884,-4.0017078 c -1.7454984,2.3720609 -1.7354408,5.6174519 -6e-7,8.035443 z"
         transform="matrix(-0.3,0,0,-0.3,0.69,0)" />
    </marker>
    <marker
       inkscape:stockid="Arrow2Send"
       orient="auto"
       refY="0"
       refX="0"
       id="Arrow2Send-1-6-8-5"
       style="overflow:visible"
       inkscape:isstock="true">
      <path
         inkscape:connector-curvature="0"
         id="path4643-2-6-5-1"
         style="fill:#000000;fill-opacity:1;fill-rule:evenodd;stroke:#000000;stroke-width:0.625;stroke-linejoin:round;stroke-opacity:1"
         d="M 8.7185878,4.0337352 -2.2072895,0.01601326 8.7185884,-4.0017078 c -1.7454984,2.3720609 -1.7354408,5.6174519 -6e-7,8.035443 z"
         transform="matrix(-0.3,0,0,-0.3,0.69,0)" />
    </marker>
    <marker
       inkscape:stockid="Arrow2Send"
       orient="auto"
       refY="0"
       refX="0"
       id="Arrow2Send-1-6-8"
       style="overflow:visible"
       inkscape:isstock="true">
      <path
         inkscape:connector-curvature="0"
         id="path4643-2-6-5"
         style="fill:#000000;fill-opacity:1;fill-rule:evenodd;stroke:#000000;stroke-width:0.625;stroke-linejoin:round;stroke-opacity:1"
         d="M 8.7185878,4.0337352 -2.2072895,0.01601326 8.7185884,-4.0017078 c -1.7454984,2.3720609 -1.7354408,5.6174519 -6e-7,8.035443 z"
         transform="matrix(-0.3,0,0,-0.3,0.69,0)" />
    </marker>
    <marker
       inkscape:stockid="Arrow2Send"
       orient="auto"
       refY="0"
       refX="0"
       id="Arrow2Send-2-2"
       style="overflow:visible"
       inkscape:isstock="true">
      <path
         inkscape:connector-curvature="0"
         id="path4643-4-7"
         style="fill:#ffffff;fill-opacity:1;fill-rule:evenodd;stroke:#000000;stroke-width:0.625;stroke-linejoin:round;stroke-opacity:1"
         d="M 8.7185878,4.0337352 -2.2072895,0.01601326 8.7185884,-4.0017078 c -1.7454984,2.3720609 -1.7354408,5.6174519 -6e-7,8.035443 z"
         transform="matrix(-0.3,0,0,-0.3,0.69,0)" />
    </marker>
  </defs>
  <sodipodi:namedview
     id="base"
     pagecolor="#ffffff"
     bordercolor="#666666"
     borderopacity="1.0"
     inkscape:pageopacity="0.0"
     inkscape:pageshadow="2"
     inkscape:zoom="0.7"
     inkscape:cx="-269.02305"
     inkscape:cy="357.66886"
     inkscape:document-units="px"
     inkscape:current-layer="layer1"
     showgrid="false"
     inkscape:window-width="1920"
     inkscape:window-height="1017"
     inkscape:window-x="1912"
     inkscape:window-y="-8"
     inkscape:window-maximized="1" />
  <metadata
     id="metadata7">
    <rdf:RDF>
      <cc:Work
         rdf:about="">
        <dc:format>image/svg+xml</dc:format>
        <dc:type
           rdf:resource="http://purl.org/dc/dcmitype/StillImage" />
        <dc:title />
      </cc:Work>
    </rdf:RDF>
  </metadata>
  <g
     inkscape:label="Layer 1"
     inkscape:groupmode="layer"
     id="layer1"
     transform="translate(-444.00716,-1070.2348)">
    <path
       sodipodi:open="true"
       d="m 636.9707,1168.8557 a 93.982628,93.055145 0 0 1 -94.49608,92.488 93.982628,93.055145 0 0 1 -93.46632,-93.5082 93.982628,93.055145 0 0 1 94.38413,-92.5999 93.982628,93.055145 0 0 1 93.57937,93.3972"
       sodipodi:end="0.0036851792"
       sodipodi:start="0.0060806573"
       sodipodi:ry="93.055145"
       sodipodi:rx="93.982628"
       sodipodi:cy="1168.2899"
       sodipodi:cx="542.98981"
       sodipodi:type="arc"
       id="path4215-5-1-8-6-0"
       style="opacity:1;fill:#ffffff;fill-opacity:1;stroke:#000000;stroke-width:10;stroke-linecap:square;stroke-linejoin:miter;stroke-miterlimit:4;stroke-dasharray:none;stroke-dashoffset:0"
       inkscape:export-xdpi="22.028419"
       inkscape:export-ydpi="22.028419" />
    <path
       inkscape:export-ydpi="22.028419"
       inkscape:export-xdpi="22.028419"
       inkscape:export-filename="C:\Users\Admin\Dropbox\Saltise\Workflows\data\problem.png"
       sodipodi:open="true"
       d="m 590.14496,1130.8885 a 13.48884,13.355724 0 0 1 -13.56253,13.2743 13.48884,13.355724 0 0 1 -13.41474,-13.4208 13.48884,13.355724 0 0 1 13.54647,-13.2904 13.48884,13.355724 0 0 1 13.43096,13.4049"
       sodipodi:end="0.0036851928"
       sodipodi:start="0.0060806573"
       sodipodi:ry="13.355724"
       sodipodi:rx="13.48884"
       sodipodi:cy="1130.8073"
       sodipodi:cx="576.65637"
       sodipodi:type="arc"
       id="path4215-94-9-8"
       style="fill:#000000;fill-opacity:1;stroke:#000000;stroke-width:1.00622165;stroke-linecap:square;stroke-linejoin:miter;stroke-miterlimit:4;stroke-dasharray:none;stroke-dashoffset:0" />
    <path
       inkscape:export-ydpi="22.028419"
       inkscape:export-xdpi="22.028419"
       inkscape:export-filename="C:\Users\Admin\Dropbox\Saltise\Workflows\data\problem.png"
       sodipodi:nodetypes="csccccc"
       inkscape:connector-curvature="0"
       id="path4219-8-2-2-5"
       d="m 576.75026,1147.9715 c 0,0 2.96663,-0.2216 4.89259,-0.8985 2.25818,-0.7935 4.38126,-2.4548 4.38126,-2.4548 l 8.94476,4.4244 -5.18552,14.1573 -13.06476,0.046 z"
       style="fill:#000000;fill-rule:evenodd;stroke:#000000;stroke-width:0.77014977px;stroke-linecap:butt;stroke-linejoin:miter;stroke-opacity:1" />
    <path
       inkscape:export-ydpi="22.028419"
       inkscape:export-xdpi="22.028419"
       inkscape:export-filename="C:\Users\Admin\Dropbox\Saltise\Workflows\data\problem.png"
       sodipodi:nodetypes="csccccc"
       inkscape:connector-curvature="0"
       id="path4219-8-2-5-1-0"
       d="m 576.16442,1147.9706 c 0,0 -2.96664,-0.2217 -4.89259,-0.8985 -2.25819,-0.7936 -4.38127,-2.4549 -4.38127,-2.4549 l -8.94475,4.4244 5.18551,14.1573 13.06477,0.046 z"
       style="fill:#000000;fill-rule:evenodd;stroke:#000000;stroke-width:0.77014977px;stroke-linecap:butt;stroke-linejoin:miter;stroke-opacity:1" />
    <path
       inkscape:export-ydpi="22.028419"
       inkscape:export-xdpi="22.028419"
       inkscape:export-filename="C:\Users\Admin\Dropbox\Saltise\Workflows\data\problem.png"
       sodipodi:open="true"
       d="m 524.48508,1186.4471 a 13.48884,13.355724 0 0 1 -13.56253,13.2743 13.48884,13.355724 0 0 1 -13.41474,-13.4208 13.48884,13.355724 0 0 1 13.54647,-13.2904 13.48884,13.355724 0 0 1 13.43096,13.4049"
       sodipodi:end="0.0036851928"
       sodipodi:start="0.0060806573"
       sodipodi:ry="13.355724"
       sodipodi:rx="13.48884"
       sodipodi:cy="1186.3658"
       sodipodi:cx="510.99649"
       sodipodi:type="arc"
       id="path4215-94-9-8-6"
       style="fill:#000000;fill-opacity:1;stroke:#000000;stroke-width:1.00622165;stroke-linecap:square;stroke-linejoin:miter;stroke-miterlimit:4;stroke-dasharray:none;stroke-dashoffset:0" />
    <path
       inkscape:export-ydpi="22.028419"
       inkscape:export-xdpi="22.028419"
       inkscape:export-filename="C:\Users\Admin\Dropbox\Saltise\Workflows\data\problem.png"
       sodipodi:nodetypes="csccccc"
       inkscape:connector-curvature="0"
       id="path4219-8-2-2-5-4"
       d="m 511.09035,1203.5299 c 0,0 2.96663,-0.2216 4.89259,-0.8985 2.25818,-0.7935 4.38126,-2.4548 4.38126,-2.4548 l 8.94476,4.4244 -5.18552,14.1573 -13.06476,0.046 z"
       style="fill:#000000;fill-rule:evenodd;stroke:#000000;stroke-width:0.77014977px;stroke-linecap:butt;stroke-linejoin:miter;stroke-opacity:1" />
    <path
       inkscape:export-ydpi="22.028419"
       inkscape:export-xdpi="22.028419"
       inkscape:export-filename="C:\Users\Admin\Dropbox\Saltise\Workflows\data\problem.png"
       sodipodi:nodetypes="csccccc"
       inkscape:connector-curvature="0"
       id="path4219-8-2-5-1-0-0"
       d="m 510.50451,1203.529 c 0,0 -2.96664,-0.2217 -4.89259,-0.8985 -2.25819,-0.7936 -4.38127,-2.4549 -4.38127,-2.4549 l -8.94475,4.4244 5.18551,14.1573 13.06477,0.046 z"
       style="fill:#000000;fill-rule:evenodd;stroke:#000000;stroke-width:0.77014977px;stroke-linecap:butt;stroke-linejoin:miter;stroke-opacity:1" />
    <path
       style="fill:none;fill-rule:evenodd;stroke:#000000;stroke-width:6;stroke-linecap:butt;stroke-linejoin:round;stroke-miterlimit:4;stroke-dasharray:none;stroke-opacity:1;marker-end:url(#marker9270)"
       d="m 538.07155,1200.8996 25.73939,0 c 0,0 8.01029,0.5081 11.44685,-3.7249 3.43655,-4.2331 3.21986,-8.3372 3.21986,-8.3372 l 0,-15.2121"
       id="path8897"
       inkscape:connector-curvature="0"
       sodipodi:nodetypes="cczcc"
       inkscape:export-xdpi="22.028419"
       inkscape:export-ydpi="22.028419" />
    <path
       style="fill:none;fill-rule:evenodd;stroke:#000000;stroke-width:6;stroke-linecap:butt;stroke-linejoin:round;stroke-miterlimit:4;stroke-dasharray:none;stroke-opacity:1;marker-end:url(#marker9188)"
       d="m 550.03552,1130.3906 -25.73939,0 c 0,0 -8.01029,-0.5081 -11.44685,3.7249 -3.43655,4.2331 -3.21986,8.3372 -3.21986,8.3372 l 0,15.2121"
       id="path8897-6"
       inkscape:connector-curvature="0"
       sodipodi:nodetypes="cczcc"
       inkscape:export-xdpi="22.028419"
       inkscape:export-ydpi="22.028419" />
  </g>
</svg>
