<?xml version="1.0" encoding="UTF-8" standalone="no"?>
<!-- Created with Inkscape (http://www.inkscape.org/) -->

<svg
   xmlns:dc="http://purl.org/dc/elements/1.1/"
   xmlns:cc="http://creativecommons.org/ns#"
   xmlns:rdf="http://www.w3.org/1999/02/22-rdf-syntax-ns#"
   xmlns:svg="http://www.w3.org/2000/svg"
   xmlns="http://www.w3.org/2000/svg"
   xmlns:sodipodi="http://sodipodi.sourceforge.net/DTD/sodipodi-0.dtd"
   xmlns:inkscape="http://www.inkscape.org/namespaces/inkscape"
   width="33.409416mm"
   height="33.409416mm"
   viewBox="0 0 118.37982 118.37982"
   id="svg2"
   version="1.1"
   inkscape:version="0.91 r13725"
   sodipodi:docname="puzzle.svg">
  <defs
     id="defs4" />
  <sodipodi:namedview
     id="base"
     pagecolor="#ffffff"
     bordercolor="#666666"
     borderopacity="1.0"
     inkscape:pageopacity="0.0"
     inkscape:pageshadow="2"
     inkscape:zoom="0.98994949"
     inkscape:cx="6.7473622"
     inkscape:cy="-45.089405"
     inkscape:document-units="px"
     inkscape:current-layer="layer1"
     showgrid="false"
     inkscape:window-width="1920"
     inkscape:window-height="1017"
     inkscape:window-x="-8"
     inkscape:window-y="72"
     inkscape:window-maximized="1" />
  <metadata
     id="metadata7">
    <rdf:RDF>
      <cc:Work
         rdf:about="">
        <dc:format>image/svg+xml</dc:format>
        <dc:type
           rdf:resource="http://purl.org/dc/dcmitype/StillImage" />
        <dc:title></dc:title>
      </cc:Work>
    </rdf:RDF>
  </metadata>
  <g
     inkscape:label="Layer 1"
     inkscape:groupmode="layer"
     id="layer1"
     transform="translate(-252.46429,-470.49969)">
    <path
       style="opacity:1;fill:none;fill-opacity:1;stroke:#000000;stroke-width:4;stroke-miterlimit:4;stroke-dasharray:none;stroke-dashoffset:5.80000067;stroke-opacity:1"
       d="m 307.40114,479.17261 a 12.695641,12.695641 0 0 0 -12.7706,12.62 12.695641,12.695641 0 0 0 3.9864,9.29093 l -6.7839,0 -21.6151,0.002 0,76.06903 20.4351,0.0177 c -0.9734,-2.15077 -1.4732,-4.48523 -1.4687,-6.84595 0.044,-9.1252 7.474,-16.4878 16.5992,-16.4487 9.1252,0.0391 16.4931,7.46508 16.4593,16.59043 l 0,0.039 c -0.018,2.29908 -0.515,4.56936 -1.4599,6.66523 l 17.79519,-0.0177 0,-26.40048 c 2.5549,1.86687 5.6325,2.88323 8.7967,2.90563 8.3296,0.0456 15.1204,-6.66806 15.1713,-14.99765 l 0,-0.0372 c 0.03,-8.32977 -6.6961,-15.10743 -15.026,-15.14294 -3.215,-0.0106 -6.347,1.01128 -8.942,2.90917 l 0,-25.30733 -15.92419,0 -6.6015,0 a 12.695641,12.695641 0 0 0 3.9687,-9.13856 l 0,-0.002 a 12.695641,12.695641 0 0 0 -12.62,-12.77059 z"
       id="path10915"
       inkscape:connector-curvature="0"
       inkscape:export-xdpi="380.13214"
       inkscape:export-ydpi="380.13214" />
    <rect
       style="color:#000000;clip-rule:nonzero;display:inline;overflow:visible;visibility:visible;opacity:1;isolation:auto;mix-blend-mode:normal;color-interpolation:sRGB;color-interpolation-filters:linearRGB;solid-color:#000000;solid-opacity:1;fill:none;fill-opacity:1;fill-rule:nonzero;stroke:none;stroke-width:1.26638401;stroke-linecap:round;stroke-linejoin:round;stroke-miterlimit:4;stroke-dasharray:none;stroke-dashoffset:0;stroke-opacity:1;color-rendering:auto;image-rendering:auto;shape-rendering:auto;text-rendering:auto;enable-background:accumulate"
       id="rect10917"
       width="118.37981"
       height="118.37981"
       x="252.46429"
       y="470.49969"
       inkscape:export-xdpi="380.13214"
       inkscape:export-ydpi="380.13214" />
  </g>
</svg>
