<?xml version="1.0" encoding="UTF-8" standalone="no"?>
<!-- Created with Inkscape (http://www.inkscape.org/) -->

<svg
   xmlns:dc="http://purl.org/dc/elements/1.1/"
   xmlns:cc="http://creativecommons.org/ns#"
   xmlns:rdf="http://www.w3.org/1999/02/22-rdf-syntax-ns#"
   xmlns:svg="http://www.w3.org/2000/svg"
   xmlns="http://www.w3.org/2000/svg"
   xmlns:sodipodi="http://sodipodi.sourceforge.net/DTD/sodipodi-0.dtd"
   xmlns:inkscape="http://www.inkscape.org/namespaces/inkscape"
   width="48.552628mm"
   height="48.552628mm"
   viewBox="0 0 172.03687 172.03687"
   id="svg2"
   version="1.1"
   inkscape:version="0.91 r13725"
   sodipodi:docname="reflective-writing.svg">
  <defs
     id="defs4" />
  <sodipodi:namedview
     id="base"
     pagecolor="#ffffff"
     bordercolor="#666666"
     borderopacity="1.0"
     inkscape:pageopacity="0.0"
     inkscape:pageshadow="2"
     inkscape:zoom="0.7"
     inkscape:cx="-238.24815"
     inkscape:cy="178.42159"
     inkscape:document-units="px"
     inkscape:current-layer="layer1"
     showgrid="false"
     inkscape:window-width="1920"
     inkscape:window-height="1017"
     inkscape:window-x="1912"
     inkscape:window-y="-8"
     inkscape:window-maximized="1" />
  <metadata
     id="metadata7">
    <rdf:RDF>
      <cc:Work
         rdf:about="">
        <dc:format>image/svg+xml</dc:format>
        <dc:type
           rdf:resource="http://purl.org/dc/dcmitype/StillImage" />
        <dc:title />
      </cc:Work>
    </rdf:RDF>
  </metadata>
  <g
     inkscape:label="Layer 1"
     inkscape:groupmode="layer"
     id="layer1"
     transform="translate(-165.41013,-357.77234)">
    <rect
       inkscape:export-filename="C:\Users\Admin\Dropbox\Website\Workflows\data\group24.png"
       inkscape:export-ydpi="25.110907"
       inkscape:export-xdpi="25.110907"
       y="362.77234"
       x="170.41013"
       height="162.03687"
       width="162.03687"
       id="rect17045"
       style="fill:#ffffff;stroke:#000000;stroke-width:10;stroke-linecap:butt;stroke-linejoin:round;stroke-miterlimit:4;stroke-dasharray:none;stroke-dashoffset:0" />
    <path
       style="opacity:1;fill:#ffffff;fill-opacity:1;stroke:#000000;stroke-width:5.75422716;stroke-linecap:round;stroke-linejoin:bevel;stroke-miterlimit:4;stroke-dasharray:none;stroke-dashoffset:0;stroke-opacity:1"
       d="m 238.36406,399.94143 a 17.17576,15.010151 0 0 0 -13.91802,6.152 17.17576,15.010151 0 0 0 -13.3921,-5.6959 17.17576,15.010151 0 0 0 -17.24887,14.9368 17.17576,15.010151 0 0 0 4.81281,10.4916 17.17576,15.010151 0 0 0 -5.07374,10.5629 17.17576,15.010151 0 0 0 5.44474,11.0117 17.17576,15.010151 0 0 0 -5.44474,10.8788 17.17576,15.010151 0 0 0 17.08104,15.083 17.17576,15.010151 0 0 0 13.94045,-6.1521 17.17576,15.010151 0 0 0 13.36967,5.696 17.17576,15.010151 0 0 0 13.31872,-5.4458 17.17576,15.010151 0 0 0 13.12166,5.4458 17.17576,15.010151 0 0 0 12.1004,-4.2856 17.17576,15.010151 0 0 0 12.03515,4.3997 17.17576,15.010151 0 0 0 17.26996,-14.9186 l 0,-0.035 a 17.17576,15.010151 0 0 0 -5.44409,-10.9938 17.17576,15.010151 0 0 0 5.44409,-10.8611 l 0,-0.035 a 17.17576,15.010151 0 0 0 -4.81216,-10.4744 17.17576,15.010151 0 0 0 5.07308,-10.5444 l 0,-0.035 a 17.17576,15.010151 0 0 0 -17.10211,-15.0657 17.17576,15.010151 0 0 0 -12.08001,4.285 17.17576,15.010151 0 0 0 -12.05555,-4.399 17.17576,15.010151 0 0 0 -13.29766,5.4459 17.17576,15.010151 0 0 0 -13.14272,-5.4459 z"
       id="path8323"
       inkscape:connector-curvature="0"
       inkscape:export-filename="C:\Users\Jeremie\Dropbox\saltise\WorkflowMaker\resources\data\reflective-writing24.png"
       inkscape:export-xdpi="25.110907"
       inkscape:export-ydpi="25.110907" />
    <path
       style="opacity:1;fill:#000000;fill-opacity:1;stroke:#000000;stroke-width:0;stroke-linecap:square;stroke-linejoin:miter;stroke-miterlimit:4;stroke-dasharray:none;stroke-dashoffset:0"
       d="m 232.63008,410.60933 -10.92465,11.9146 37.19782,34.1076 2.51218,-2.7576 -35.45974,-32.2738 1.46675,-1.5284 35.17886,32.5139 3.96386,-4.3101 -35.36831,-32.07 1.28346,-1.4458 35.19141,32.3088 2.15623,-2.3517 z"
       id="rect4998-5-5"
       inkscape:connector-curvature="0"
       sodipodi:nodetypes="ccccccccccccc"
       inkscape:export-xdpi="25.110907"
       inkscape:export-ydpi="25.110907" />
    <path
       style="fill:none;fill-rule:evenodd;stroke:#000000;stroke-width:1.50132418;stroke-linecap:butt;stroke-linejoin:miter;stroke-miterlimit:4;stroke-dasharray:none;stroke-opacity:1"
       d="m 268.97671,444.93423 7.5471,16.5847 -17.50137,-5.7549"
       id="path5000-8-4"
       inkscape:connector-curvature="0"
       sodipodi:nodetypes="ccc"
       inkscape:export-xdpi="25.110907"
       inkscape:export-ydpi="25.110907"
       inkscape:export-filename="C:\Users\Admin\Dropbox\Saltise\Workflows\data\write24.png" />
    <path
       style="fill:#000000;fill-rule:evenodd;stroke:#000000;stroke-width:0.6863029;stroke-linecap:butt;stroke-linejoin:miter;stroke-miterlimit:4;stroke-dasharray:none;stroke-opacity:1"
       d="m 274.0805,456.42753 -2.65754,3.3509 5.08399,1.7331 z"
       id="path5002-9-7"
       inkscape:connector-curvature="0"
       inkscape:export-xdpi="25.110907"
       inkscape:export-ydpi="25.110907"
       inkscape:export-filename="C:\Users\Admin\Dropbox\Saltise\Workflows\data\problem24.png"
       sodipodi:nodetypes="cccc" />
    <path
       style="opacity:1;fill:#ffffff;fill-opacity:1;stroke:#000000;stroke-width:4.79518938;stroke-linecap:round;stroke-linejoin:bevel;stroke-miterlimit:4;stroke-dasharray:none;stroke-dashoffset:0;stroke-opacity:1"
       id="path8450"
       sodipodi:type="arc"
       sodipodi:cx="278.82822"
       sodipodi:cy="488.23767"
       sodipodi:rx="8.7447729"
       sodipodi:ry="8.7447729"
       sodipodi:start="0.0060806573"
       sodipodi:end="0.0036851929"
       sodipodi:open="true"
       d="m 287.57283,488.29084 a 8.7447729,8.7447729 0 0 1 -8.79255,8.69147 8.7447729,8.7447729 0 0 1 -8.69673,-8.78734 8.7447729,8.7447729 0 0 1 8.78213,-8.70199 8.7447729,8.7447729 0 0 1 8.70725,8.77692"
       inkscape:export-filename="C:\Users\Jeremie\Dropbox\saltise\WorkflowMaker\resources\data\reflective-writing24.png"
       inkscape:export-xdpi="25.110907"
       inkscape:export-ydpi="25.110907" />
    <path
       style="opacity:1;fill:#ffffff;fill-opacity:1;stroke:#000000;stroke-width:4.79518938;stroke-linecap:round;stroke-linejoin:bevel;stroke-miterlimit:4;stroke-dasharray:none;stroke-dashoffset:0;stroke-opacity:1"
       id="path8452"
       sodipodi:type="arc"
       sodipodi:cx="298.2023"
       sodipodi:cy="500.29285"
       sodipodi:rx="5.8957319"
       sodipodi:ry="5.8957319"
       sodipodi:start="0.0060806573"
       sodipodi:end="0.0036851929"
       sodipodi:open="true"
       d="m 304.09792,500.3287 a 5.8957319,5.8957319 0 0 1 -5.92794,5.85979 5.8957319,5.8957319 0 0 1 -5.86334,-5.92443 5.8957319,5.8957319 0 0 1 5.92092,-5.86689 5.8957319,5.8957319 0 0 1 5.87043,5.9174"
       inkscape:export-filename="C:\Users\Jeremie\Dropbox\saltise\WorkflowMaker\resources\data\reflective-writing24.png"
       inkscape:export-xdpi="25.110907"
       inkscape:export-ydpi="25.110907" />
  </g>
</svg>
