<?xml version="1.0" encoding="UTF-8" standalone="no"?>
<!-- Created with Inkscape (http://www.inkscape.org/) -->

<svg
   xmlns:dc="http://purl.org/dc/elements/1.1/"
   xmlns:cc="http://creativecommons.org/ns#"
   xmlns:rdf="http://www.w3.org/1999/02/22-rdf-syntax-ns#"
   xmlns:svg="http://www.w3.org/2000/svg"
   xmlns="http://www.w3.org/2000/svg"
   xmlns:sodipodi="http://sodipodi.sourceforge.net/DTD/sodipodi-0.dtd"
   xmlns:inkscape="http://www.inkscape.org/namespaces/inkscape"
   width="56.874962mm"
   height="56.874962mm"
   viewBox="0 0 201.52545 201.52546"
   id="svg2"
   version="1.1"
   inkscape:version="0.91 r13725"
   sodipodi:docname="settings.svg">
  <defs
     id="defs4" />
  <sodipodi:namedview
     id="base"
     pagecolor="#ffffff"
     bordercolor="#666666"
     borderopacity="1.0"
     inkscape:pageopacity="0.0"
     inkscape:pageshadow="2"
     inkscape:zoom="0.98994949"
     inkscape:cx="-321.92717"
     inkscape:cy="178.789"
     inkscape:document-units="px"
     inkscape:current-layer="layer1"
     showgrid="false"
     inkscape:window-width="1920"
     inkscape:window-height="1017"
     inkscape:window-x="-8"
     inkscape:window-y="72"
     inkscape:window-maximized="1" />
  <metadata
     id="metadata7">
    <rdf:RDF>
      <cc:Work
         rdf:about="">
        <dc:format>image/svg+xml</dc:format>
        <dc:type
           rdf:resource="http://purl.org/dc/dcmitype/StillImage" />
        <dc:title></dc:title>
      </cc:Work>
    </rdf:RDF>
  </metadata>
  <g
     inkscape:label="Layer 1"
     inkscape:groupmode="layer"
     id="layer1"
     transform="translate(-581.13886,-611.23242)">
    <path
       sodipodi:type="star"
       style="color:#000000;clip-rule:nonzero;display:inline;overflow:visible;visibility:visible;opacity:1;isolation:auto;mix-blend-mode:normal;color-interpolation:sRGB;color-interpolation-filters:linearRGB;solid-color:#000000;solid-opacity:1;fill:#666666;fill-opacity:1;fill-rule:nonzero;stroke:#666666;stroke-width:6;stroke-linecap:butt;stroke-linejoin:miter;stroke-miterlimit:2.70000005;stroke-dasharray:none;stroke-dashoffset:5.80000067;stroke-opacity:1;color-rendering:auto;image-rendering:auto;shape-rendering:auto;text-rendering:auto;enable-background:accumulate"
       id="path8589"
       sodipodi:sides="8"
       sodipodi:cx="3708.446"
       sodipodi:cy="2532.7947"
       sodipodi:r1="54.09639"
       sodipodi:r2="70.992638"
       sodipodi:arg1="0.60258097"
       sodipodi:arg2="0.99528005"
       inkscape:flatsided="false"
       inkscape:rounded="0.84"
       inkscape:randomized="0"
       d="m 3753.0147,2563.4549 c -14.0438,20.4146 14.8575,15.4101 -5.9296,28.8963 -20.7871,13.4862 -4.4386,-10.8664 -28.8043,-6.3616 -24.3657,4.5047 -0.3908,21.4023 -24.6257,16.2398 -24.2349,-5.1625 4.5452,-10.8222 -15.8693,-24.866 -20.4145,-14.0439 -15.4101,14.8574 -28.8963,-5.9297 -13.4862,-20.7871 10.8664,-4.4385 6.3616,-28.8043 -4.5047,-24.3657 -21.4023,-0.3907 -16.2398,-24.6256 5.1625,-24.2349 10.8222,4.5452 24.8661,-15.8694 14.0438,-20.4145 -14.8575,-15.41 5.9296,-28.8963 20.7871,-13.4862 4.4386,10.8665 28.8043,6.3617 24.3657,-4.5048 0.3908,-21.4024 24.6257,-16.2399 24.2349,5.1625 -4.5452,10.8223 15.8693,24.8661 20.4145,14.0438 15.41,-14.8574 28.8963,5.9297 13.4862,20.7871 -10.8664,4.4385 -6.3617,28.8042 4.5048,24.3658 21.4024,0.3908 16.2399,24.6257 -5.1625,24.2349 -10.8222,-4.5452 -24.8661,15.8693 z"
       inkscape:export-xdpi="16.077379"
       inkscape:export-ydpi="16.077379"
       transform="matrix(0.2301966,0.9731442,-0.9731442,0.2301966,2292.8326,-3481.4804)" />
    <path
       style="color:#000000;clip-rule:nonzero;display:inline;overflow:visible;visibility:visible;opacity:1;isolation:auto;mix-blend-mode:normal;color-interpolation:sRGB;color-interpolation-filters:linearRGB;solid-color:#000000;solid-opacity:1;fill:#ffffff;fill-opacity:1;fill-rule:nonzero;stroke:#ffffff;stroke-width:10.03749371;stroke-linecap:butt;stroke-linejoin:miter;stroke-miterlimit:2.70000005;stroke-dasharray:none;stroke-dashoffset:5.80000067;stroke-opacity:1;color-rendering:auto;image-rendering:auto;shape-rendering:auto;text-rendering:auto;enable-background:accumulate"
       id="path8591"
       sodipodi:type="arc"
       sodipodi:cx="682.83319"
       sodipodi:cy="710.2041"
       sodipodi:rx="16.07626"
       sodipodi:ry="16.07626"
       sodipodi:start="0.0060806573"
       sodipodi:end="0.0036851754"
       sodipodi:open="true"
       d="m 698.90915,710.30186 a 16.07626,16.07626 0 0 1 -16.16409,15.97826 16.07626,16.07626 0 0 1 -15.98794,-16.15452 16.07626,16.07626 0 0 1 16.14494,-15.99761 16.07626,16.07626 0 0 1 16.00728,16.13536"
       inkscape:export-xdpi="16.077379"
       inkscape:export-ydpi="16.077379" />
    <rect
       style="fill:none;stroke:none;stroke-width:12.50000095;stroke-miterlimit:4;stroke-dasharray:none;stroke-opacity:1"
       id="rect8414"
       width="201.52547"
       height="201.52547"
       x="581.13885"
       y="611.23242"
       inkscape:export-xdpi="16.077379"
       inkscape:export-ydpi="16.077379" />
  </g>
</svg>
