<?xml version="1.0" encoding="UTF-8" standalone="no"?>
<!-- Created with Inkscape (http://www.inkscape.org/) -->

<svg
   xmlns:dc="http://purl.org/dc/elements/1.1/"
   xmlns:cc="http://creativecommons.org/ns#"
   xmlns:rdf="http://www.w3.org/1999/02/22-rdf-syntax-ns#"
   xmlns:svg="http://www.w3.org/2000/svg"
   xmlns="http://www.w3.org/2000/svg"
   xmlns:sodipodi="http://sodipodi.sourceforge.net/DTD/sodipodi-0.dtd"
   xmlns:inkscape="http://www.inkscape.org/namespaces/inkscape"
   width="45.730404mm"
   height="45.730404mm"
   viewBox="0 0 162.03686 162.03686"
   id="svg2"
   version="1.1"
   inkscape:version="0.91 r13725"
   sodipodi:docname="students.svg">
  <defs
     id="defs4">
    <marker
       inkscape:stockid="Arrow2Send"
       orient="auto"
       refY="0"
       refX="0"
       id="Arrow2Send"
       style="overflow:visible"
       inkscape:isstock="true">
      <path
         id="path8271"
         style="fill:#000000;fill-opacity:1;fill-rule:evenodd;stroke:#000000;stroke-width:0.625;stroke-linejoin:round;stroke-opacity:1"
         d="M 8.7185878,4.0337352 -2.2072895,0.01601326 8.7185884,-4.0017078 c -1.7454984,2.3720609 -1.7354408,5.6174519 -6e-7,8.035443 z"
         transform="matrix(-0.3,0,0,-0.3,0.69,0)"
         inkscape:connector-curvature="0" />
    </marker>
    <marker
       inkscape:isstock="true"
       style="overflow:visible"
       id="marker9676"
       refX="0"
       refY="0"
       orient="auto"
       inkscape:stockid="Arrow2Send">
      <path
         transform="matrix(-0.3,0,0,-0.3,0.69,0)"
         d="M 8.7185878,4.0337352 -2.2072895,0.01601326 8.7185884,-4.0017078 c -1.7454984,2.3720609 -1.7354408,5.6174519 -6e-7,8.035443 z"
         style="fill:#000000;fill-opacity:1;fill-rule:evenodd;stroke:#000000;stroke-width:0.625;stroke-linejoin:round;stroke-opacity:1"
         id="path9678"
         inkscape:connector-curvature="0" />
    </marker>
    <marker
       inkscape:isstock="true"
       style="overflow:visible"
       id="marker9570"
       refX="0"
       refY="0"
       orient="auto"
       inkscape:stockid="Arrow2Send">
      <path
         transform="matrix(-0.3,0,0,-0.3,0.69,0)"
         d="M 8.7185878,4.0337352 -2.2072895,0.01601326 8.7185884,-4.0017078 c -1.7454984,2.3720609 -1.7354408,5.6174519 -6e-7,8.035443 z"
         style="fill:#000000;fill-opacity:1;fill-rule:evenodd;stroke:#000000;stroke-width:0.625;stroke-linejoin:round;stroke-opacity:1"
         id="path9572"
         inkscape:connector-curvature="0" />
    </marker>
    <marker
       inkscape:isstock="true"
       style="overflow:visible"
       id="marker9470"
       refX="0"
       refY="0"
       orient="auto"
       inkscape:stockid="Arrow2Send">
      <path
         transform="matrix(-0.3,0,0,-0.3,0.69,0)"
         d="M 8.7185878,4.0337352 -2.2072895,0.01601326 8.7185884,-4.0017078 c -1.7454984,2.3720609 -1.7354408,5.6174519 -6e-7,8.035443 z"
         style="fill:#000000;fill-opacity:1;fill-rule:evenodd;stroke:#000000;stroke-width:0.625;stroke-linejoin:round;stroke-opacity:1"
         id="path9472"
         inkscape:connector-curvature="0" />
    </marker>
    <marker
       inkscape:isstock="true"
       style="overflow:visible"
       id="marker9358"
       refX="0"
       refY="0"
       orient="auto"
       inkscape:stockid="Arrow2Send">
      <path
         transform="matrix(-0.3,0,0,-0.3,0.69,0)"
         d="M 8.7185878,4.0337352 -2.2072895,0.01601326 8.7185884,-4.0017078 c -1.7454984,2.3720609 -1.7354408,5.6174519 -6e-7,8.035443 z"
         style="fill:#000000;fill-opacity:1;fill-rule:evenodd;stroke:#000000;stroke-width:0.625;stroke-linejoin:round;stroke-opacity:1"
         id="path9360"
         inkscape:connector-curvature="0" />
    </marker>
    <marker
       inkscape:isstock="true"
       style="overflow:visible"
       id="marker9270"
       refX="0"
       refY="0"
       orient="auto"
       inkscape:stockid="Arrow2Send">
      <path
         transform="matrix(-0.3,0,0,-0.3,0.69,0)"
         d="M 8.7185878,4.0337352 -2.2072895,0.01601326 8.7185884,-4.0017078 c -1.7454984,2.3720609 -1.7354408,5.6174519 -6e-7,8.035443 z"
         style="fill:#000000;fill-opacity:1;fill-rule:evenodd;stroke:#000000;stroke-width:0.625;stroke-linejoin:round;stroke-opacity:1"
         id="path9272"
         inkscape:connector-curvature="0" />
    </marker>
    <marker
       inkscape:isstock="true"
       style="overflow:visible"
       id="marker9188"
       refX="0"
       refY="0"
       orient="auto"
       inkscape:stockid="Arrow2Send">
      <path
         transform="matrix(-0.3,0,0,-0.3,0.69,0)"
         d="M 8.7185878,4.0337352 -2.2072895,0.01601326 8.7185884,-4.0017078 c -1.7454984,2.3720609 -1.7354408,5.6174519 -6e-7,8.035443 z"
         style="fill:#000000;fill-opacity:1;fill-rule:evenodd;stroke:#000000;stroke-width:0.625;stroke-linejoin:round;stroke-opacity:1"
         id="path9190"
         inkscape:connector-curvature="0" />
    </marker>
    <marker
       inkscape:stockid="Arrow1Send"
       orient="auto"
       refY="0"
       refX="0"
       id="Arrow1Send"
       style="overflow:visible"
       inkscape:isstock="true">
      <path
         id="path8253"
         d="M 0,0 5,-5 -12.5,0 5,5 0,0 Z"
         style="fill:#000000;fill-opacity:1;fill-rule:evenodd;stroke:#000000;stroke-width:1pt;stroke-opacity:1"
         transform="matrix(-0.2,0,0,-0.2,-1.2,0)"
         inkscape:connector-curvature="0" />
    </marker>
    <marker
       inkscape:stockid="Arrow2Mend"
       orient="auto"
       refY="0"
       refX="0"
       id="Arrow2Mend"
       style="overflow:visible"
       inkscape:isstock="true">
      <path
         id="path8265"
         style="fill:#000000;fill-opacity:1;fill-rule:evenodd;stroke:#000000;stroke-width:0.625;stroke-linejoin:round;stroke-opacity:1"
         d="M 8.7185878,4.0337352 -2.2072895,0.01601326 8.7185884,-4.0017078 c -1.7454984,2.3720609 -1.7354408,5.6174519 -6e-7,8.035443 z"
         transform="scale(-0.6,-0.6)"
         inkscape:connector-curvature="0" />
    </marker>
    <marker
       inkscape:isstock="true"
       style="overflow:visible"
       id="marker8971-6"
       refX="0"
       refY="0"
       orient="auto"
       inkscape:stockid="Arrow2Send">
      <path
         inkscape:connector-curvature="0"
         transform="matrix(-0.3,0,0,-0.3,0.69,0)"
         d="M 8.7185878,4.0337352 -2.2072895,0.01601326 8.7185884,-4.0017078 c -1.7454984,2.3720609 -1.7354408,5.6174519 -6e-7,8.035443 z"
         style="fill:#000000;fill-opacity:1;fill-rule:evenodd;stroke:#000000;stroke-width:0.625;stroke-linejoin:round;stroke-opacity:1"
         id="path8973-9" />
    </marker>
    <marker
       inkscape:isstock="true"
       style="overflow:visible"
       id="marker9091"
       refX="0"
       refY="0"
       orient="auto"
       inkscape:stockid="Arrow2Send">
      <path
         inkscape:connector-curvature="0"
         transform="matrix(-0.3,0,0,-0.3,0.69,0)"
         d="M 8.7185878,4.0337352 -2.2072895,0.01601326 8.7185884,-4.0017078 c -1.7454984,2.3720609 -1.7354408,5.6174519 -6e-7,8.035443 z"
         style="fill:#000000;fill-opacity:1;fill-rule:evenodd;stroke:#000000;stroke-width:0.625;stroke-linejoin:round;stroke-opacity:1"
         id="path9093" />
    </marker>
    <marker
       inkscape:stockid="Arrow2Send"
       orient="auto"
       refY="0"
       refX="0"
       id="Arrow2Send-1-6-8-7"
       style="overflow:visible"
       inkscape:isstock="true">
      <path
         inkscape:connector-curvature="0"
         id="path4643-2-6-5-17"
         style="fill:#ffffff;fill-opacity:1;fill-rule:evenodd;stroke:#000000;stroke-width:0.625;stroke-linejoin:round;stroke-opacity:1"
         d="M 8.7185878,4.0337352 -2.2072895,0.01601326 8.7185884,-4.0017078 c -1.7454984,2.3720609 -1.7354408,5.6174519 -6e-7,8.035443 z"
         transform="matrix(-0.3,0,0,-0.3,0.69,0)" />
    </marker>
    <marker
       inkscape:stockid="Arrow2Send"
       orient="auto"
       refY="0"
       refX="0"
       id="Arrow2Send-1-6-8-5"
       style="overflow:visible"
       inkscape:isstock="true">
      <path
         inkscape:connector-curvature="0"
         id="path4643-2-6-5-1"
         style="fill:#000000;fill-opacity:1;fill-rule:evenodd;stroke:#000000;stroke-width:0.625;stroke-linejoin:round;stroke-opacity:1"
         d="M 8.7185878,4.0337352 -2.2072895,0.01601326 8.7185884,-4.0017078 c -1.7454984,2.3720609 -1.7354408,5.6174519 -6e-7,8.035443 z"
         transform="matrix(-0.3,0,0,-0.3,0.69,0)" />
    </marker>
    <marker
       inkscape:stockid="Arrow2Send"
       orient="auto"
       refY="0"
       refX="0"
       id="Arrow2Send-1-6-8"
       style="overflow:visible"
       inkscape:isstock="true">
      <path
         inkscape:connector-curvature="0"
         id="path4643-2-6-5"
         style="fill:#000000;fill-opacity:1;fill-rule:evenodd;stroke:#000000;stroke-width:0.625;stroke-linejoin:round;stroke-opacity:1"
         d="M 8.7185878,4.0337352 -2.2072895,0.01601326 8.7185884,-4.0017078 c -1.7454984,2.3720609 -1.7354408,5.6174519 -6e-7,8.035443 z"
         transform="matrix(-0.3,0,0,-0.3,0.69,0)" />
    </marker>
    <marker
       inkscape:stockid="Arrow2Send"
       orient="auto"
       refY="0"
       refX="0"
       id="Arrow2Send-2-2"
       style="overflow:visible"
       inkscape:isstock="true">
      <path
         inkscape:connector-curvature="0"
         id="path4643-4-7"
         style="fill:#ffffff;fill-opacity:1;fill-rule:evenodd;stroke:#000000;stroke-width:0.625;stroke-linejoin:round;stroke-opacity:1"
         d="M 8.7185878,4.0337352 -2.2072895,0.01601326 8.7185884,-4.0017078 c -1.7454984,2.3720609 -1.7354408,5.6174519 -6e-7,8.035443 z"
         transform="matrix(-0.3,0,0,-0.3,0.69,0)" />
    </marker>
  </defs>
  <sodipodi:namedview
     id="base"
     pagecolor="#ffffff"
     bordercolor="#666666"
     borderopacity="1.0"
     inkscape:pageopacity="0.0"
     inkscape:pageshadow="2"
     inkscape:zoom="0.7"
     inkscape:cx="-89.711756"
     inkscape:cy="-56.724175"
     inkscape:document-units="px"
     inkscape:current-layer="layer1"
     showgrid="false"
     inkscape:window-width="1920"
     inkscape:window-height="1017"
     inkscape:window-x="1912"
     inkscape:window-y="-8"
     inkscape:window-maximized="1" />
  <metadata
     id="metadata7">
    <rdf:RDF>
      <cc:Work
         rdf:about="">
        <dc:format>image/svg+xml</dc:format>
        <dc:type
           rdf:resource="http://purl.org/dc/dcmitype/StillImage" />
        <dc:title />
      </cc:Work>
    </rdf:RDF>
  </metadata>
  <g
     inkscape:label="Layer 1"
     inkscape:groupmode="layer"
     id="layer1"
     transform="translate(-264.69586,-347.05804)">
    <rect
       style="fill:#ffffff;stroke:none;stroke-width:5;stroke-linecap:butt;stroke-linejoin:round;stroke-miterlimit:4;stroke-dasharray:none;stroke-dashoffset:0"
       id="rect9303"
       width="162.03687"
       height="162.03687"
       x="264.69586"
       y="347.05804"
       inkscape:export-xdpi="26.660599"
       inkscape:export-ydpi="26.660599"
       inkscape:export-filename="C:\Users\Admin\Dropbox\Website\Workflows\data\group24.png" />
    <g
       style="fill:#ffffff;stroke:#000000;stroke-width:5;stroke-miterlimit:4;stroke-dasharray:none"
       transform="matrix(0.8853177,0,0,0.8853177,1986.3784,-1968.5701)"
       id="g9045"
       inkscape:export-xdpi="26.660599"
       inkscape:export-ydpi="26.660599">
      <path
         sodipodi:open="true"
         d="m -1833.0087,2668.5852 a 19.014854,18.827204 0 0 1 -19.1187,18.7124 19.014854,18.827204 0 0 1 -18.9104,-18.9188 19.014854,18.827204 0 0 1 19.0961,-18.7351 19.014854,18.827204 0 0 1 18.9332,18.8964"
         sodipodi:end="0.0036851792"
         sodipodi:start="0.0060806573"
         sodipodi:ry="18.827204"
         sodipodi:rx="19.014854"
         sodipodi:cy="2668.4707"
         sodipodi:cx="-1852.0232"
         sodipodi:type="arc"
         id="path9047"
         style="opacity:1;fill:#ffffff;fill-opacity:1;stroke:#000000;stroke-width:5;stroke-linecap:square;stroke-linejoin:miter;stroke-miterlimit:4;stroke-dasharray:none;stroke-dashoffset:0" />
      <path
         sodipodi:nodetypes="cscccc"
         inkscape:connector-curvature="0"
         id="path9049"
         d="m -1852.304,2692.7008 c 0,0 -4.182,-0.3125 -6.8969,-1.2666 -3.1833,-1.1186 -6.1762,-3.4606 -6.1762,-3.4606 l -12.6092,6.237 -0.6105,39.4664 c 8.3077,0 17.9317,0.059 26.3375,-0.047"
         style="fill:#ffffff;fill-rule:evenodd;stroke:#000000;stroke-width:5;stroke-linecap:butt;stroke-linejoin:miter;stroke-miterlimit:4;stroke-dasharray:none;stroke-opacity:1" />
      <path
         style="opacity:1;fill:#ffffff;fill-opacity:1;stroke:#000000;stroke-width:5;stroke-linecap:square;stroke-linejoin:miter;stroke-miterlimit:4;stroke-dasharray:none;stroke-dashoffset:0"
         id="path9053"
         sodipodi:type="arc"
         sodipodi:cx="-1852.0232"
         sodipodi:cy="2668.4707"
         sodipodi:rx="19.014854"
         sodipodi:ry="18.827204"
         sodipodi:start="0.0060806573"
         sodipodi:end="0.0036851792"
         d="m -1833.0087,2668.5852 a 19.014854,18.827204 0 0 1 -19.1187,18.7124 19.014854,18.827204 0 0 1 -18.9104,-18.9188 19.014854,18.827204 0 0 1 19.0961,-18.7351 19.014854,18.827204 0 0 1 18.9332,18.8964"
         sodipodi:open="true" />
      <path
         style="fill:#ffffff;fill-rule:evenodd;stroke:#000000;stroke-width:5;stroke-linecap:butt;stroke-linejoin:miter;stroke-miterlimit:4;stroke-dasharray:none;stroke-opacity:1"
         d="m -1852.304,2692.7008 c 0,0 -4.182,-0.3125 -6.8969,-1.2666 -3.1833,-1.1186 -6.1762,-3.4606 -6.1762,-3.4606 l -12.6092,6.237 -0.6105,55.4664 c 8.3077,0 17.9317,0.059 26.3375,-0.047"
         id="path9055"
         inkscape:connector-curvature="0"
         sodipodi:nodetypes="cscccc" />
      <path
         sodipodi:nodetypes="cscccc"
         inkscape:connector-curvature="0"
         id="path9352"
         d="m -1852.4274,2692.7008 c 0,0 4.182,-0.3125 6.8969,-1.2666 3.1833,-1.1186 6.1762,-3.4606 6.1762,-3.4606 l 12.6092,6.237 0.6105,55.4664 c -8.3077,0 -17.9317,0.059 -26.3375,-0.047"
         style="fill:#ffffff;fill-rule:evenodd;stroke:#000000;stroke-width:5;stroke-linecap:butt;stroke-linejoin:miter;stroke-miterlimit:4;stroke-dasharray:none;stroke-opacity:1" />
    </g>
    <path
       inkscape:export-ydpi="26.660599"
       inkscape:export-xdpi="26.660599"
       inkscape:connector-curvature="0"
       id="path9354"
       d="m 268.99382,472.19665 152.2466,0"
       style="fill:none;fill-rule:evenodd;stroke:#000000;stroke-width:6.20064878;stroke-linecap:butt;stroke-linejoin:miter;stroke-miterlimit:4;stroke-dasharray:none;stroke-opacity:1" />
    <g
       style="fill:#ffffff;stroke:#000000;stroke-width:5;stroke-miterlimit:4;stroke-dasharray:none"
       id="g8995"
       transform="translate(2234.0304,-2237.2506)"
       inkscape:export-xdpi="26.660599"
       inkscape:export-ydpi="26.660599">
      <path
         style="fill:#ffffff;fill-rule:evenodd;stroke:#000000;stroke-width:5;stroke-linecap:butt;stroke-linejoin:miter;stroke-miterlimit:4;stroke-dasharray:none;stroke-opacity:1"
         d="m -1852.304,2692.7008 c 0,0 -4.182,-0.3125 -6.8969,-1.2666 -3.1833,-1.1186 -6.1762,-3.4606 -6.1762,-3.4606 l -12.6092,6.237 -0.6105,39.4664 c 8.3077,0 17.9317,0.059 26.3375,-0.047"
         id="path8944"
         inkscape:connector-curvature="0"
         sodipodi:nodetypes="cscccc" />
      <path
         sodipodi:nodetypes="cscccc"
         inkscape:connector-curvature="0"
         id="path8967"
         d="m -1852.3757,2692.7008 c 0,0 4.182,-0.3125 6.8969,-1.2666 3.1833,-1.1186 6.1762,-3.4606 6.1762,-3.4606 l 12.6092,6.237 0.6105,39.4664 c -8.3077,0 -17.9317,0.059 -26.3375,-0.047"
         style="fill:#ffffff;fill-rule:evenodd;stroke:#000000;stroke-width:5;stroke-linecap:butt;stroke-linejoin:miter;stroke-miterlimit:4;stroke-dasharray:none;stroke-opacity:1" />
      <path
         sodipodi:open="true"
         d="m -1833.0087,2672.8264 a 19.014854,18.827204 0 0 1 -19.1187,18.7124 19.014854,18.827204 0 0 1 -18.9104,-18.9188 19.014854,18.827204 0 0 1 19.0961,-18.7351 19.014854,18.827204 0 0 1 18.9332,18.8964"
         sodipodi:end="0.0036851792"
         sodipodi:start="0.0060806573"
         sodipodi:ry="18.827204"
         sodipodi:rx="19.014854"
         sodipodi:cy="2672.7119"
         sodipodi:cx="-1852.0232"
         sodipodi:type="arc"
         id="path8969"
         style="opacity:1;fill:#ffffff;fill-opacity:1;stroke:#000000;stroke-width:5;stroke-linecap:square;stroke-linejoin:miter;stroke-miterlimit:4;stroke-dasharray:none;stroke-dashoffset:0" />
      <path
         sodipodi:nodetypes="cscccc"
         inkscape:connector-curvature="0"
         id="path8971"
         d="m -1852.304,2692.7008 c 0,0 -4.182,-0.3125 -6.8969,-1.2666 -3.1833,-1.1186 -6.1762,-3.4606 -6.1762,-3.4606 l -12.6092,6.237 -0.6105,39.4664 c 8.3077,0 17.9317,0.059 26.3375,-0.047"
         style="fill:#ffffff;fill-rule:evenodd;stroke:#000000;stroke-width:5;stroke-linecap:butt;stroke-linejoin:miter;stroke-miterlimit:4;stroke-dasharray:none;stroke-opacity:1" />
      <path
         style="fill:#ffffff;fill-rule:evenodd;stroke:#000000;stroke-width:5;stroke-linecap:butt;stroke-linejoin:miter;stroke-miterlimit:4;stroke-dasharray:none;stroke-opacity:1"
         d="m -1852.3757,2692.7008 c 0,0 4.182,-0.3125 6.8969,-1.2666 3.1833,-1.1186 6.1762,-3.4606 6.1762,-3.4606 l 12.6092,6.237 0.6105,39.4664 c -8.3077,0 -17.9317,0.059 -26.3375,-0.047"
         id="path8974"
         inkscape:connector-curvature="0"
         sodipodi:nodetypes="cscccc" />
    </g>
    <g
       style="fill:#ffffff;stroke:#000000;stroke-width:5;stroke-miterlimit:4;stroke-dasharray:none"
       transform="translate(2169.0213,-2236.5841)"
       id="g9003"
       inkscape:export-xdpi="26.660599"
       inkscape:export-ydpi="26.660599">
      <path
         sodipodi:nodetypes="cscccc"
         inkscape:connector-curvature="0"
         id="path9007"
         d="m -1852.304,2692.7008 c 0,0 -4.182,-0.3125 -6.8969,-1.2666 -3.1833,-1.1186 -6.1762,-3.4606 -6.1762,-3.4606 l -12.6092,6.237 -0.6105,39.4664 c 8.3077,0 17.9317,0.059 26.3375,-0.047"
         style="fill:#ffffff;fill-rule:evenodd;stroke:#000000;stroke-width:5;stroke-linecap:butt;stroke-linejoin:miter;stroke-miterlimit:4;stroke-dasharray:none;stroke-opacity:1" />
      <path
         style="fill:#ffffff;fill-rule:evenodd;stroke:#000000;stroke-width:5;stroke-linecap:butt;stroke-linejoin:miter;stroke-miterlimit:4;stroke-dasharray:none;stroke-opacity:1"
         d="m -1852.3757,2692.7008 c 0,0 4.182,-0.3125 6.8969,-1.2666 3.1833,-1.1186 6.1762,-3.4606 6.1762,-3.4606 l 12.6092,6.237 0.6105,39.4664 c -8.3077,0 -17.9317,0.059 -26.3375,-0.047"
         id="path9009"
         inkscape:connector-curvature="0"
         sodipodi:nodetypes="cscccc" />
      <path
         style="opacity:1;fill:#ffffff;fill-opacity:1;stroke:#000000;stroke-width:5;stroke-linecap:square;stroke-linejoin:miter;stroke-miterlimit:4;stroke-dasharray:none;stroke-dashoffset:0"
         id="path9011"
         sodipodi:type="arc"
         sodipodi:cx="-1852.0232"
         sodipodi:cy="2671.7695"
         sodipodi:rx="19.014854"
         sodipodi:ry="18.827204"
         sodipodi:start="0.0060806573"
         sodipodi:end="0.0036851792"
         d="m -1833.0087,2671.884 a 19.014854,18.827204 0 0 1 -19.1187,18.7125 19.014854,18.827204 0 0 1 -18.9104,-18.9189 19.014854,18.827204 0 0 1 19.0961,-18.7351 19.014854,18.827204 0 0 1 18.9332,18.8964"
         sodipodi:open="true" />
      <path
         style="fill:#ffffff;fill-rule:evenodd;stroke:#000000;stroke-width:5;stroke-linecap:butt;stroke-linejoin:miter;stroke-miterlimit:4;stroke-dasharray:none;stroke-opacity:1"
         d="m -1852.304,2692.7008 c 0,0 -4.182,-0.3125 -6.8969,-1.2666 -3.1833,-1.1186 -6.1762,-3.4606 -6.1762,-3.4606 l -12.6092,6.237 -0.6105,39.4664 c 8.3077,0 17.9317,0.059 26.3375,-0.047"
         id="path9013"
         inkscape:connector-curvature="0"
         sodipodi:nodetypes="cscccc" />
      <path
         sodipodi:nodetypes="cscccc"
         inkscape:connector-curvature="0"
         id="path9015"
         d="m -1852.3757,2692.7008 c 0,0 4.182,-0.3125 6.8969,-1.2666 3.1833,-1.1186 6.1762,-3.4606 6.1762,-3.4606 l 12.6092,6.237 0.6105,39.4664 c -8.3077,0 -17.9317,0.059 -26.3375,-0.047"
         style="fill:#ffffff;fill-rule:evenodd;stroke:#000000;stroke-width:5;stroke-linecap:butt;stroke-linejoin:miter;stroke-miterlimit:4;stroke-dasharray:none;stroke-opacity:1" />
    </g>
    <path
       style="fill:none;fill-rule:evenodd;stroke:#000000;stroke-width:6.20064878;stroke-linecap:butt;stroke-linejoin:miter;stroke-miterlimit:4;stroke-dasharray:none;stroke-opacity:1"
       d="m 268.99382,504.19665 152.2466,0"
       id="path4534-1-3"
       inkscape:connector-curvature="0"
       inkscape:export-xdpi="26.660599"
       inkscape:export-ydpi="26.660599" />
  </g>
</svg>
